<?xml version="1.0" encoding="UTF-8"?><svg xmlns="http://www.w3.org/2000/svg" xmlns:xlink="http://www.w3.org/1999/xlink" contentScriptType="text/ecmascript" width="172.5pt" zoomAndPan="magnify" contentStyleType="text/css" viewBox="0 0 172.5 33.749998" height="33.749998pt" preserveAspectRatio="xMidYMid meet" version="1.2"><defs><g/><clipPath xml:id="clip1" id="clip1"><path d="M 22.023438 15 L 23 15 L 23 16 L 22.023438 16 Z M 22.023438 15 "/></clipPath><clipPath xml:id="clip2" id="clip2"><path d="M 22.023438 14 L 23 14 L 23 16 L 22.023438 16 Z M 22.023438 14 "/></clipPath><clipPath xml:id="clip3" id="clip3"><path d="M 22.023438 15 L 23 15 L 23 20 L 22.023438 20 Z M 22.023438 15 "/></clipPath><clipPath xml:id="clip4" id="clip4"><path d="M 22.023438 6.15625 L 42.929688 6.15625 L 42.929688 27.808594 L 22.023438 27.808594 Z M 22.023438 6.15625 "/></clipPath></defs><g xml:id="surface1" id="surface1"><g style="fill:rgb(14.118958%,28.62854%,47.839355%);fill-opacity:1;"><g transform="translate(59.463314, 20.308688)"><path style="stroke:none;" d=""/></g></g><g style="fill:rgb(14.118958%,28.62854%,47.839355%);fill-opacity:1;"><g transform="translate(66.229767, 20.308688)"><path style="stroke:none;" d="M 0.25 0 L 1.65625 -14.53125 L 6.578125 -14.53125 L 7.96875 0 L 5.21875 0 L 5.015625 -2.359375 L 3.25 -2.359375 L 3.078125 0 Z M 3.46875 -4.671875 L 4.78125 -4.671875 L 4.140625 -12.0625 L 4.015625 -12.0625 Z M 3.46875 -4.671875 "/></g></g><g style="fill:rgb(14.118958%,28.62854%,47.839355%);fill-opacity:1;"><g transform="translate(77.24343, 20.308688)"><path style="stroke:none;" d="M 0.640625 -14.53125 L 4.65625 -14.53125 C 5.6875 -14.53125 6.460938 -14.242188 6.984375 -13.671875 C 7.503906 -13.097656 7.769531 -12.25 7.78125 -11.125 L 7.8125 -4.3125 C 7.820312 -2.882812 7.570312 -1.804688 7.0625 -1.078125 C 6.5625 -0.359375 5.722656 0 4.546875 0 L 0.640625 0 Z M 4.078125 -2.578125 C 4.609375 -2.578125 4.875 -2.832031 4.875 -3.34375 L 4.875 -10.84375 C 4.875 -11.175781 4.847656 -11.421875 4.796875 -11.578125 C 4.742188 -11.742188 4.648438 -11.851562 4.515625 -11.90625 C 4.378906 -11.96875 4.171875 -12 3.890625 -12 L 3.578125 -12 L 3.578125 -2.578125 Z M 4.078125 -2.578125 "/></g></g><g style="fill:rgb(14.118958%,28.62854%,47.839355%);fill-opacity:1;"><g transform="translate(88.392428, 20.308688)"><path style="stroke:none;" d="M 1.984375 0 L 0.1875 -14.546875 L 2.96875 -14.546875 L 4.03125 -4.65625 L 4.96875 -14.546875 L 7.75 -14.546875 L 5.953125 0 Z M 1.984375 0 "/></g></g><g style="fill:rgb(14.118958%,28.62854%,47.839355%);fill-opacity:1;"><g transform="translate(99.13544, 20.308688)"><path style="stroke:none;" d="M 0.640625 0 L 0.640625 -14.53125 L 6.46875 -14.53125 L 6.46875 -11.734375 L 3.609375 -11.734375 L 3.609375 -8.90625 L 6.34375 -8.90625 L 6.34375 -6.15625 L 3.609375 -6.15625 L 3.609375 -2.828125 L 6.65625 -2.828125 L 6.65625 0 Z M 0.640625 0 "/></g></g><g style="fill:rgb(14.118958%,28.62854%,47.839355%);fill-opacity:1;"><g transform="translate(108.91423, 20.308688)"><path style="stroke:none;" d="M 0.640625 0 L 0.640625 -14.53125 L 3.640625 -14.53125 L 4.96875 -7.578125 L 4.96875 -14.53125 L 7.78125 -14.53125 L 7.78125 0 L 4.9375 0 L 3.484375 -7.28125 L 3.484375 0 Z M 0.640625 0 "/></g></g><g style="fill:rgb(14.118958%,28.62854%,47.839355%);fill-opacity:1;"><g transform="translate(120.14781, 20.308688)"><path style="stroke:none;" d="M 1.890625 0 L 1.890625 -11.75 L 0.171875 -11.75 L 0.171875 -14.53125 L 6.53125 -14.53125 L 6.53125 -11.75 L 4.8125 -11.75 L 4.8125 0 Z M 1.890625 0 "/></g></g><g style="fill:rgb(14.118958%,28.62854%,47.839355%);fill-opacity:1;"><g transform="translate(129.655952, 20.308688)"><path style="stroke:none;" d="M 4.015625 0.140625 C 2.816406 0.140625 1.925781 -0.195312 1.34375 -0.875 C 0.757812 -1.550781 0.46875 -2.554688 0.46875 -3.890625 L 0.46875 -14.53125 L 3.296875 -14.53125 L 3.296875 -4.015625 C 3.296875 -3.546875 3.34375 -3.179688 3.4375 -2.921875 C 3.53125 -2.660156 3.722656 -2.53125 4.015625 -2.53125 C 4.304688 -2.53125 4.492188 -2.65625 4.578125 -2.90625 C 4.671875 -3.164062 4.71875 -3.535156 4.71875 -4.015625 L 4.71875 -14.53125 L 7.546875 -14.53125 L 7.546875 -3.890625 C 7.546875 -2.554688 7.253906 -1.550781 6.671875 -0.875 C 6.085938 -0.195312 5.203125 0.140625 4.015625 0.140625 Z M 4.015625 0.140625 "/></g></g><g style="fill:rgb(14.118958%,28.62854%,47.839355%);fill-opacity:1;"><g transform="translate(140.483547, 20.308688)"><path style="stroke:none;" d="M 0.640625 -14.53125 L 5.109375 -14.53125 C 5.816406 -14.53125 6.363281 -14.367188 6.75 -14.046875 C 7.144531 -13.734375 7.410156 -13.285156 7.546875 -12.703125 C 7.679688 -12.117188 7.75 -11.375 7.75 -10.46875 C 7.75 -9.644531 7.640625 -9.003906 7.421875 -8.546875 C 7.210938 -8.085938 6.84375 -7.765625 6.3125 -7.578125 C 6.75 -7.492188 7.066406 -7.273438 7.265625 -6.921875 C 7.460938 -6.566406 7.5625 -6.09375 7.5625 -5.5 L 7.53125 0 L 4.6875 0 L 4.6875 -5.6875 C 4.6875 -6.09375 4.609375 -6.351562 4.453125 -6.46875 C 4.296875 -6.582031 4.007812 -6.640625 3.59375 -6.640625 L 3.59375 0 L 0.640625 0 Z M 4.296875 -9.15625 C 4.703125 -9.15625 4.90625 -9.59375 4.90625 -10.46875 C 4.90625 -10.851562 4.890625 -11.140625 4.859375 -11.328125 C 4.828125 -11.523438 4.765625 -11.660156 4.671875 -11.734375 C 4.578125 -11.804688 4.445312 -11.84375 4.28125 -11.84375 L 3.609375 -11.84375 L 3.609375 -9.15625 Z M 4.296875 -9.15625 "/></g></g><g style="fill:rgb(14.118958%,28.62854%,47.839355%);fill-opacity:1;"><g transform="translate(151.361887, 20.308688)"><path style="stroke:none;" d="M 0.640625 0 L 0.640625 -14.53125 L 6.46875 -14.53125 L 6.46875 -11.734375 L 3.609375 -11.734375 L 3.609375 -8.90625 L 6.34375 -8.90625 L 6.34375 -6.15625 L 3.609375 -6.15625 L 3.609375 -2.828125 L 6.65625 -2.828125 L 6.65625 0 Z M 0.640625 0 "/></g></g><g style="fill:rgb(14.118958%,28.62854%,47.839355%);fill-opacity:1;"><g transform="translate(161.140677, 20.308688)"><path style="stroke:none;" d="M 4.09375 0.140625 C 2.769531 0.140625 1.816406 -0.1875 1.234375 -0.84375 C 0.648438 -1.5 0.359375 -2.554688 0.359375 -4.015625 L 0.359375 -5.4375 L 3.21875 -5.4375 L 3.21875 -3.625 C 3.21875 -2.894531 3.445312 -2.53125 3.90625 -2.53125 C 4.164062 -2.53125 4.347656 -2.609375 4.453125 -2.765625 C 4.554688 -2.921875 4.609375 -3.175781 4.609375 -3.53125 C 4.609375 -4.007812 4.550781 -4.398438 4.4375 -4.703125 C 4.320312 -5.015625 4.175781 -5.273438 4 -5.484375 C 3.820312 -5.691406 3.507812 -6.019531 3.0625 -6.46875 L 1.8125 -7.71875 C 0.84375 -8.664062 0.359375 -9.710938 0.359375 -10.859375 C 0.359375 -12.097656 0.640625 -13.039062 1.203125 -13.6875 C 1.773438 -14.34375 2.609375 -14.671875 3.703125 -14.671875 C 5.015625 -14.671875 5.957031 -14.320312 6.53125 -13.625 C 7.101562 -12.9375 7.390625 -11.851562 7.390625 -10.375 L 4.4375 -10.375 L 4.421875 -11.375 C 4.421875 -11.5625 4.363281 -11.710938 4.25 -11.828125 C 4.144531 -11.941406 4 -12 3.8125 -12 C 3.582031 -12 3.410156 -11.9375 3.296875 -11.8125 C 3.179688 -11.6875 3.125 -11.515625 3.125 -11.296875 C 3.125 -10.828125 3.394531 -10.335938 3.9375 -9.828125 L 5.640625 -8.203125 C 6.035156 -7.816406 6.359375 -7.453125 6.609375 -7.109375 C 6.867188 -6.765625 7.078125 -6.359375 7.234375 -5.890625 C 7.398438 -5.421875 7.484375 -4.867188 7.484375 -4.234375 C 7.484375 -2.796875 7.21875 -1.707031 6.6875 -0.96875 C 6.164062 -0.226562 5.300781 0.140625 4.09375 0.140625 Z M 4.09375 0.140625 "/></g></g><g style="fill:rgb(0%,0%,0%);fill-opacity:1;"><g transform="translate(66.137571, 29.077597)"><path style="stroke:none;" d="M 0.25 -3.515625 L 0.25 0 L 2.546875 0 L 2.546875 -0.820312 L 1.105469 -0.820312 L 1.105469 -1.378906 L 2.515625 -1.378906 L 2.515625 -2.207031 L 1.105469 -2.207031 L 1.105469 -2.691406 L 2.542969 -2.691406 L 2.542969 -3.515625 Z M 0.25 -3.515625 "/></g></g><g style="fill:rgb(0%,0%,0%);fill-opacity:1;"><g transform="translate(69.512421, 29.077597)"><path style="stroke:none;" d="M 2.359375 0 L 3.273438 0 L 3.273438 -0.0703125 L 2.15625 -1.765625 L 3.269531 -3.40625 L 3.269531 -3.484375 L 2.363281 -3.484375 L 1.671875 -2.492188 L 0.992188 -3.484375 L 0.09375 -3.484375 L 0.09375 -3.386719 L 1.195312 -1.765625 L 0.078125 -0.0703125 L 0.078125 0 L 0.996094 0 L 1.671875 -1.058594 Z M 2.359375 0 "/></g></g><g style="fill:rgb(0%,0%,0%);fill-opacity:1;"><g transform="translate(73.514454, 29.077597)"><path style="stroke:none;" d="M 1.65625 -3.515625 L 0.25 -3.515625 L 0.25 0 L 1.101562 0 L 1.101562 -1.035156 L 1.65625 -1.035156 C 2.472656 -1.035156 2.882812 -1.65625 2.882812 -2.269531 C 2.882812 -2.882812 2.472656 -3.515625 1.65625 -3.515625 Z M 1.65625 -1.835938 L 1.101562 -1.835938 L 1.101562 -2.6875 L 1.65625 -2.6875 C 1.921875 -2.6875 2.050781 -2.464844 2.050781 -2.253906 C 2.050781 -2.050781 1.921875 -1.835938 1.65625 -1.835938 Z M 1.65625 -1.835938 "/></g></g><g style="fill:rgb(0%,0%,0%);fill-opacity:1;"><g transform="translate(77.148144, 29.077597)"><path style="stroke:none;" d="M 0.25 -3.515625 L 0.25 0 L 2.546875 0 L 2.546875 -0.820312 L 1.105469 -0.820312 L 1.105469 -1.378906 L 2.515625 -1.378906 L 2.515625 -2.207031 L 1.105469 -2.207031 L 1.105469 -2.691406 L 2.542969 -2.691406 L 2.542969 -3.515625 Z M 0.25 -3.515625 "/></g></g><g style="fill:rgb(0%,0%,0%);fill-opacity:1;"><g transform="translate(80.522993, 29.077597)"><path style="stroke:none;" d="M 1.601562 -3.515625 L 0.25 -3.515625 L 0.25 0 L 1.09375 0 L 1.09375 -1.179688 L 1.234375 -1.179688 L 1.960938 0 L 2.867188 0 L 2.867188 -0.160156 L 2.121094 -1.265625 C 2.578125 -1.484375 2.800781 -1.929688 2.800781 -2.355469 C 2.800781 -2.933594 2.398438 -3.515625 1.601562 -3.515625 Z M 1.582031 -1.953125 L 1.09375 -1.953125 L 1.09375 -2.699219 L 1.582031 -2.699219 C 1.839844 -2.699219 1.972656 -2.503906 1.972656 -2.320312 C 1.972656 -2.140625 1.835938 -1.953125 1.582031 -1.953125 Z M 1.582031 -1.953125 "/></g></g><g style="fill:rgb(0%,0%,0%);fill-opacity:1;"><g transform="translate(84.146727, 29.077597)"><path style="stroke:none;" d="M 2.21875 0 L 2.21875 -0.761719 L 1.644531 -0.761719 L 1.644531 -2.726562 L 2.21875 -2.726562 L 2.21875 -3.503906 L 0.214844 -3.503906 L 0.214844 -2.726562 L 0.792969 -2.726562 L 0.792969 -0.761719 L 0.214844 -0.761719 L 0.214844 0 Z M 2.21875 0 "/></g></g><g style="fill:rgb(0%,0%,0%);fill-opacity:1;"><g transform="translate(87.153231, 29.077597)"><path style="stroke:none;" d="M 0.25 -3.515625 L 0.25 0 L 2.546875 0 L 2.546875 -0.820312 L 1.105469 -0.820312 L 1.105469 -1.378906 L 2.515625 -1.378906 L 2.515625 -2.207031 L 1.105469 -2.207031 L 1.105469 -2.691406 L 2.542969 -2.691406 L 2.542969 -3.515625 Z M 0.25 -3.515625 "/></g></g><g style="fill:rgb(0%,0%,0%);fill-opacity:1;"><g transform="translate(90.52808, 29.077597)"><path style="stroke:none;" d="M 2.109375 -3.484375 L 2.109375 -1.742188 L 0.90625 -3.484375 L 0.25 -3.484375 L 0.25 0 L 1.09375 0 L 1.09375 -1.699219 L 2.285156 0 L 2.953125 0 L 2.953125 -3.484375 Z M 2.109375 -3.484375 "/></g></g><g style="fill:rgb(0%,0%,0%);fill-opacity:1;"><g transform="translate(94.340967, 29.077597)"><path style="stroke:none;" d="M 1.019531 -1.738281 C 1.019531 -2.398438 1.5 -2.726562 1.976562 -2.726562 C 2.375 -2.726562 2.777344 -2.5 2.890625 -2.035156 L 3.753906 -2.035156 C 3.644531 -2.933594 2.871094 -3.539062 1.976562 -3.539062 C 0.980469 -3.539062 0.175781 -2.761719 0.175781 -1.738281 C 0.175781 -0.710938 0.980469 0.0507812 1.976562 0.0507812 C 2.882812 0.0507812 3.628906 -0.550781 3.757812 -1.464844 L 2.898438 -1.464844 C 2.789062 -0.992188 2.382812 -0.75 1.976562 -0.75 C 1.5 -0.75 1.019531 -1.082031 1.019531 -1.738281 Z M 1.019531 -1.738281 "/></g></g><g style="fill:rgb(0%,0%,0%);fill-opacity:1;"><g transform="translate(98.8557, 29.077597)"><path style="stroke:none;" d="M 0.25 -3.515625 L 0.25 0 L 2.546875 0 L 2.546875 -0.820312 L 1.105469 -0.820312 L 1.105469 -1.378906 L 2.515625 -1.378906 L 2.515625 -2.207031 L 1.105469 -2.207031 L 1.105469 -2.691406 L 2.542969 -2.691406 L 2.542969 -3.515625 Z M 0.25 -3.515625 "/></g></g><g style="fill:rgb(0%,0%,0%);fill-opacity:1;"><g transform="translate(102.22536, 29.077597)"><path style="stroke:none;" d=""/></g></g><g style="fill:rgb(0%,0%,0%);fill-opacity:1;"><g transform="translate(104.07207, 29.077597)"><path style="stroke:none;" d=""/></g></g><g style="fill:rgb(0%,0%,0%);fill-opacity:1;"><g transform="translate(105.913211, 29.077597)"><path style="stroke:none;" d="M 2.890625 -3.523438 L 0.164062 -3.523438 L 0.164062 -2.726562 L 1.105469 -2.726562 L 1.105469 0 L 1.957031 0 L 1.957031 -2.726562 L 2.890625 -2.726562 Z M 2.890625 -3.523438 "/></g></g><g style="fill:rgb(0%,0%,0%);fill-opacity:1;"><g transform="translate(109.631518, 29.077597)"><path style="stroke:none;" d="M 2.964844 0 L 2.964844 -3.484375 L 2.117188 -3.484375 L 2.117188 -2.171875 L 1.101562 -2.171875 L 1.101562 -3.484375 L 0.25 -3.484375 L 0.25 0 L 1.101562 0 L 1.101562 -1.347656 L 2.117188 -1.347656 L 2.117188 0 Z M 2.964844 0 "/></g></g><g style="fill:rgb(0%,0%,0%);fill-opacity:1;"><g transform="translate(113.494179, 29.077597)"><path style="stroke:none;" d="M 0.25 -3.515625 L 0.25 0 L 2.546875 0 L 2.546875 -0.820312 L 1.105469 -0.820312 L 1.105469 -1.378906 L 2.515625 -1.378906 L 2.515625 -2.207031 L 1.105469 -2.207031 L 1.105469 -2.691406 L 2.542969 -2.691406 L 2.542969 -3.515625 Z M 0.25 -3.515625 "/></g></g><g style="fill:rgb(0%,0%,0%);fill-opacity:1;"><g transform="translate(116.866581, 29.077597)"><path style="stroke:none;" d=""/></g></g><g style="fill:rgb(0%,0%,0%);fill-opacity:1;"><g transform="translate(118.71329, 29.077597)"><path style="stroke:none;" d=""/></g></g><g style="fill:rgb(0%,0%,0%);fill-opacity:1;"><g transform="translate(120.554431, 29.077597)"><path style="stroke:none;" d="M 2.890625 -3.523438 L 0.164062 -3.523438 L 0.164062 -2.726562 L 1.105469 -2.726562 L 1.105469 0 L 1.957031 0 L 1.957031 -2.726562 L 2.890625 -2.726562 Z M 2.890625 -3.523438 "/></g></g><g style="fill:rgb(0%,0%,0%);fill-opacity:1;"><g transform="translate(124.272738, 29.077597)"><path style="stroke:none;" d="M 2.964844 0 L 2.964844 -3.484375 L 2.117188 -3.484375 L 2.117188 -2.171875 L 1.101562 -2.171875 L 1.101562 -3.484375 L 0.25 -3.484375 L 0.25 0 L 1.101562 0 L 1.101562 -1.347656 L 2.117188 -1.347656 L 2.117188 0 Z M 2.964844 0 "/></g></g><g style="fill:rgb(0%,0%,0%);fill-opacity:1;"><g transform="translate(128.135399, 29.077597)"><path style="stroke:none;" d="M 1.601562 -3.515625 L 0.25 -3.515625 L 0.25 0 L 1.09375 0 L 1.09375 -1.179688 L 1.234375 -1.179688 L 1.960938 0 L 2.867188 0 L 2.867188 -0.160156 L 2.121094 -1.265625 C 2.578125 -1.484375 2.800781 -1.929688 2.800781 -2.355469 C 2.800781 -2.933594 2.398438 -3.515625 1.601562 -3.515625 Z M 1.582031 -1.953125 L 1.09375 -1.953125 L 1.09375 -2.699219 L 1.582031 -2.699219 C 1.839844 -2.699219 1.972656 -2.503906 1.972656 -2.320312 C 1.972656 -2.140625 1.835938 -1.953125 1.582031 -1.953125 Z M 1.582031 -1.953125 "/></g></g><g style="fill:rgb(0%,0%,0%);fill-opacity:1;"><g transform="translate(131.759132, 29.077597)"><path style="stroke:none;" d="M 2.21875 0 L 2.21875 -0.761719 L 1.644531 -0.761719 L 1.644531 -2.726562 L 2.21875 -2.726562 L 2.21875 -3.503906 L 0.214844 -3.503906 L 0.214844 -2.726562 L 0.792969 -2.726562 L 0.792969 -0.761719 L 0.214844 -0.761719 L 0.214844 0 Z M 2.21875 0 "/></g></g><g style="fill:rgb(0%,0%,0%);fill-opacity:1;"><g transform="translate(134.765637, 29.077597)"><path style="stroke:none;" d="M 0.25 -3.484375 L 0.25 0 L 2.5625 0 L 2.5625 -0.820312 L 1.101562 -0.820312 L 1.101562 -3.484375 Z M 0.25 -3.484375 "/></g></g><g style="fill:rgb(0%,0%,0%);fill-opacity:1;"><g transform="translate(138.105644, 29.077597)"><path style="stroke:none;" d="M 0.25 -3.484375 L 0.25 0 L 2.5625 0 L 2.5625 -0.820312 L 1.101562 -0.820312 L 1.101562 -3.484375 Z M 0.25 -3.484375 "/></g></g><g style="fill:rgb(0%,0%,0%);fill-opacity:1;"><g transform="translate(141.445651, 29.077597)"><path style="stroke:none;" d=""/></g></g><g style="fill:rgb(0%,0%,0%);fill-opacity:1;"><g transform="translate(143.292359, 29.077597)"><path style="stroke:none;" d="M 3.582031 0.0195312 L 4.714844 -3.378906 L 4.714844 -3.484375 L 3.863281 -3.484375 L 3.195312 -1.46875 L 2.761719 -2.6875 L 2.039062 -2.6875 L 1.601562 -1.46875 L 0.9375 -3.484375 L 0.0859375 -3.484375 L 0.0859375 -3.378906 L 1.214844 0.0195312 L 1.964844 0.0195312 L 2.394531 -1.191406 L 2.832031 0.0195312 Z M 3.582031 0.0195312 "/></g></g><g style="fill:rgb(0%,0%,0%);fill-opacity:1;"><g transform="translate(148.747871, 29.077597)"><path style="stroke:none;" d="M 2.21875 0 L 2.21875 -0.761719 L 1.644531 -0.761719 L 1.644531 -2.726562 L 2.21875 -2.726562 L 2.21875 -3.503906 L 0.214844 -3.503906 L 0.214844 -2.726562 L 0.792969 -2.726562 L 0.792969 -0.761719 L 0.214844 -0.761719 L 0.214844 0 Z M 2.21875 0 "/></g></g><g style="fill:rgb(0%,0%,0%);fill-opacity:1;"><g transform="translate(151.754377, 29.077597)"><path style="stroke:none;" d="M 2.890625 -3.523438 L 0.164062 -3.523438 L 0.164062 -2.726562 L 1.105469 -2.726562 L 1.105469 0 L 1.957031 0 L 1.957031 -2.726562 L 2.890625 -2.726562 Z M 2.890625 -3.523438 "/></g></g><g style="fill:rgb(0%,0%,0%);fill-opacity:1;"><g transform="translate(155.472684, 29.077597)"><path style="stroke:none;" d="M 2.964844 0 L 2.964844 -3.484375 L 2.117188 -3.484375 L 2.117188 -2.171875 L 1.101562 -2.171875 L 1.101562 -3.484375 L 0.25 -3.484375 L 0.25 0 L 1.101562 0 L 1.101562 -1.347656 L 2.117188 -1.347656 L 2.117188 0 Z M 2.964844 0 "/></g></g><g style="fill:rgb(0%,0%,0%);fill-opacity:1;"><g transform="translate(159.331955, 29.077597)"><path style="stroke:none;" d=""/></g></g><g style="fill:rgb(0%,0%,0%);fill-opacity:1;"><g transform="translate(161.178665, 29.077597)"><path style="stroke:none;" d=""/></g></g><g style="fill:rgb(0%,0%,0%);fill-opacity:1;"><g transform="translate(163.019804, 29.077597)"><path style="stroke:none;" d="M 1.601562 0.0507812 C 2.269531 0.0507812 2.9375 -0.339844 2.9375 -1.121094 L 2.9375 -3.484375 L 2.085938 -3.484375 L 2.085938 -1.125 C 2.085938 -0.867188 1.835938 -0.738281 1.585938 -0.738281 C 1.34375 -0.738281 1.101562 -0.867188 1.101562 -1.125 L 1.101562 -3.484375 L 0.25 -3.484375 L 0.25 -1.121094 C 0.25 -0.328125 0.925781 0.0507812 1.601562 0.0507812 Z M 1.601562 0.0507812 "/></g></g><g style="fill:rgb(0%,0%,0%);fill-opacity:1;"><g transform="translate(166.802822, 29.077597)"><path style="stroke:none;" d="M 1.976562 -2.382812 L 2.832031 -2.382812 C 2.832031 -3.1875 2.160156 -3.535156 1.539062 -3.535156 C 0.796875 -3.535156 0.167969 -3.078125 0.210938 -2.308594 L 0.210938 -2.316406 C 0.273438 -1.511719 0.941406 -1.390625 1.503906 -1.335938 C 1.632812 -1.320312 2.03125 -1.308594 2.03125 -1.058594 C 2.03125 -0.859375 1.808594 -0.78125 1.527344 -0.78125 C 1.335938 -0.78125 1.046875 -0.847656 1.046875 -1.191406 L 0.183594 -1.191406 C 0.183594 -0.304688 0.957031 0.0429688 1.523438 0.0429688 C 2.183594 0.0429688 2.890625 -0.375 2.890625 -1.101562 C 2.890625 -1.175781 2.882812 -1.265625 2.867188 -1.34375 C 2.71875 -1.972656 2.09375 -2.101562 1.601562 -2.164062 C 1.488281 -2.175781 1.074219 -2.179688 1.074219 -2.4375 C 1.074219 -2.628906 1.257812 -2.742188 1.523438 -2.742188 C 1.785156 -2.742188 1.976562 -2.617188 1.976562 -2.382812 Z M 1.976562 -2.382812 "/></g></g><g style="fill:rgb(0%,0%,0%);fill-opacity:1;"><g transform="translate(3.824469, 27.81409)"><path style="stroke:none;" d="M 15.539062 -18.203125 C 15.515625 -18.386719 15.460938 -18.519531 15.40625 -18.628906 C 15.460938 -18.785156 15.355469 -18.839844 15.355469 -18.945312 C 15.246094 -19.105469 15.167969 -19.238281 15.035156 -19.371094 C 15.035156 -19.425781 14.980469 -19.453125 15.035156 -19.480469 C 14.929688 -19.585938 14.875 -19.664062 14.820312 -19.746094 C 14.769531 -19.796875 14.714844 -19.851562 14.6875 -19.878906 L 14.554688 -20.011719 C 14.476562 -20.089844 14.394531 -20.171875 14.289062 -20.222656 C 14.238281 -20.304688 14.183594 -20.304688 14.128906 -20.332031 C 14.078125 -20.382812 14.023438 -20.410156 13.96875 -20.4375 C 13.890625 -20.488281 13.8125 -20.515625 13.757812 -20.515625 C 13.652344 -20.515625 13.542969 -20.542969 13.410156 -20.597656 C 13.277344 -20.621094 13.171875 -20.703125 13.066406 -20.730469 C 12.828125 -20.757812 12.613281 -20.863281 12.535156 -20.941406 C 12.425781 -20.96875 12.425781 -20.941406 12.375 -20.96875 C 12.347656 -21.023438 12.292969 -21.074219 12.214844 -21.15625 C 12.132812 -21.183594 12 -21.234375 11.921875 -21.234375 C 11.867188 -21.261719 11.707031 -21.15625 11.550781 -21.15625 C 11.335938 -21.15625 11.125 -21.261719 10.910156 -21.261719 C 10.832031 -21.261719 10.722656 -21.15625 10.644531 -21.128906 C 10.5625 -21.128906 10.484375 -21.128906 10.40625 -21.074219 L 10.136719 -21.074219 C 9.925781 -21.046875 9.738281 -21.046875 9.632812 -21.074219 C 9.445312 -21.074219 9.394531 -21.15625 9.234375 -21.128906 C 9.152344 -21.046875 9.074219 -20.941406 9.101562 -20.835938 C 9.074219 -20.808594 9.019531 -20.757812 8.96875 -20.730469 C 8.914062 -20.730469 8.859375 -20.703125 8.78125 -20.648438 C 8.675781 -20.597656 8.515625 -20.542969 8.355469 -20.515625 C 8.222656 -20.515625 8.0625 -20.4375 7.902344 -20.410156 C 7.742188 -20.332031 7.636719 -20.304688 7.503906 -20.222656 C 7.425781 -20.222656 7.316406 -20.195312 7.238281 -20.171875 C 7.183594 -20.117188 7.078125 -20.089844 7.023438 -20.0625 C 6.945312 -19.984375 6.867188 -19.957031 6.785156 -19.878906 C 6.730469 -19.878906 6.625 -19.796875 6.546875 -19.773438 C 6.464844 -19.746094 6.386719 -19.746094 6.332031 -19.691406 C 6.226562 -19.664062 6.121094 -19.53125 5.988281 -19.453125 C 5.90625 -19.347656 5.773438 -19.265625 5.695312 -19.238281 C 5.589844 -19.160156 5.507812 -19.105469 5.457031 -19.027344 C 5.242188 -19.027344 5.136719 -18.921875 5.054688 -18.8125 C 4.949219 -18.707031 4.871094 -18.601562 4.761719 -18.519531 C 4.683594 -18.46875 4.550781 -18.414062 4.46875 -18.386719 C 4.445312 -18.359375 4.417969 -18.308594 4.390625 -18.253906 C 4.335938 -18.203125 4.3125 -18.175781 4.285156 -18.175781 C 4.203125 -18.070312 4.070312 -18.042969 4.019531 -17.960938 C 3.964844 -17.933594 3.910156 -17.855469 3.886719 -17.828125 C 3.832031 -17.75 3.777344 -17.75 3.699219 -17.722656 C 3.644531 -17.644531 3.617188 -17.535156 3.566406 -17.457031 C 3.460938 -17.324219 3.351562 -17.21875 3.21875 -17.109375 C 3.140625 -16.976562 3.035156 -16.816406 2.980469 -16.683594 C 2.847656 -16.605469 2.792969 -16.472656 2.714844 -16.390625 C 2.609375 -16.257812 2.554688 -16.179688 2.476562 -16.046875 L 2.261719 -15.726562 C 2.15625 -15.621094 2.101562 -15.488281 1.96875 -15.378906 C 1.914062 -15.195312 1.890625 -15.089844 1.757812 -14.980469 C 1.757812 -14.953125 1.78125 -14.902344 1.757812 -14.875 C 1.675781 -14.742188 1.625 -14.554688 1.542969 -14.421875 C 1.488281 -14.238281 1.4375 -14.101562 1.332031 -13.917969 L 1.332031 -13.890625 C 1.089844 -13.492188 0.851562 -12.933594 0.851562 -12.558594 C 0.796875 -12.507812 0.773438 -12.425781 0.71875 -12.347656 C 0.691406 -12.292969 0.691406 -12.214844 0.664062 -12.109375 C 0.636719 -11.976562 0.636719 -11.789062 0.585938 -11.601562 C 0.558594 -11.46875 0.453125 -11.335938 0.453125 -11.148438 C 0.453125 -11.070312 0.453125 -10.964844 0.425781 -10.9375 C 0.425781 -10.832031 0.398438 -10.722656 0.398438 -10.644531 C 0.371094 -10.484375 0.347656 -10.296875 0.347656 -10.164062 C 0.292969 -10.085938 0.371094 -9.980469 0.371094 -9.871094 C 0.371094 -9.738281 0.292969 -9.578125 0.292969 -9.421875 C 0.347656 -9.3125 0.347656 -9.234375 0.347656 -9.152344 L 0.347656 -8.914062 C 0.371094 -8.808594 0.371094 -8.726562 0.371094 -8.621094 C 0.371094 -8.570312 0.371094 -8.488281 0.371094 -8.382812 L 0.371094 -8.144531 C 0.371094 -8.0625 0.398438 -7.957031 0.398438 -7.875 L 0.425781 -7.425781 C 0.453125 -7.238281 0.558594 -7.105469 0.613281 -6.890625 L 0.691406 -6.441406 C 0.71875 -6.332031 0.71875 -6.253906 0.773438 -6.148438 C 0.773438 -6.121094 0.773438 -6.039062 0.796875 -6.039062 L 0.824219 -5.90625 C 0.851562 -5.828125 0.90625 -5.746094 0.929688 -5.695312 C 0.984375 -5.613281 0.984375 -5.613281 1.011719 -5.535156 C 1.039062 -5.480469 1.039062 -5.429688 1.0625 -5.402344 L 1.144531 -5.082031 C 1.222656 -4.976562 1.277344 -4.871094 1.332031 -4.761719 C 1.355469 -4.683594 1.410156 -4.628906 1.4375 -4.550781 C 1.488281 -4.523438 1.515625 -4.445312 1.542969 -4.363281 C 1.625 -4.3125 1.703125 -4.152344 1.757812 -4.042969 C 1.835938 -3.910156 1.890625 -3.832031 1.941406 -3.699219 C 2.15625 -3.484375 2.421875 -3.167969 2.714844 -2.847656 C 2.765625 -2.765625 2.820312 -2.714844 2.925781 -2.632812 C 2.980469 -2.554688 3.058594 -2.5 3.140625 -2.421875 C 3.273438 -2.289062 3.433594 -2.128906 3.59375 -1.996094 C 3.777344 -1.996094 3.832031 -1.808594 3.992188 -1.757812 C 4.445312 -1.464844 5.054688 -1.171875 5.480469 -0.929688 C 5.613281 -0.851562 5.746094 -0.796875 5.882812 -0.746094 C 6.015625 -0.71875 6.148438 -0.691406 6.253906 -0.613281 C 6.546875 -0.53125 6.785156 -0.480469 7.050781 -0.398438 C 7.183594 -0.371094 7.316406 -0.320312 7.449219 -0.292969 L 7.851562 -0.210938 L 8.035156 -0.1875 C 8.089844 -0.160156 8.144531 -0.160156 8.25 -0.160156 L 8.59375 -0.078125 C 9.152344 -0.0546875 9.710938 0.0273438 10.273438 0 L 10.378906 -0.0546875 L 10.484375 -0.0546875 L 10.699219 -0.078125 C 10.855469 -0.078125 11.015625 -0.078125 11.125 -0.105469 C 11.28125 -0.160156 11.441406 -0.1875 11.574219 -0.210938 C 11.707031 -0.265625 11.867188 -0.292969 12 -0.320312 C 12.214844 -0.320312 12.507812 -0.480469 12.613281 -0.585938 C 12.691406 -0.53125 12.800781 -0.585938 12.851562 -0.613281 C 12.960938 -0.691406 13.011719 -0.71875 13.066406 -0.746094 C 13.144531 -0.796875 13.171875 -0.824219 13.199219 -0.824219 C 13.253906 -0.851562 13.277344 -0.90625 13.332031 -0.929688 C 13.492188 -1.011719 13.675781 -1.117188 13.835938 -1.222656 C 13.863281 -1.332031 13.917969 -1.355469 13.996094 -1.382812 C 14.078125 -1.464844 14.128906 -1.570312 14.183594 -1.597656 C 14.261719 -1.597656 14.128906 -1.542969 14.261719 -1.570312 C 14.289062 -1.757812 14.476562 -1.96875 14.6875 -2.207031 C 14.875 -2.421875 15.0625 -2.714844 15.140625 -2.875 C 15.113281 -2.847656 15.113281 -2.847656 15.113281 -2.875 C 15.195312 -2.953125 15.140625 -3.058594 15.195312 -3.140625 C 15.355469 -3.460938 15.40625 -3.726562 15.460938 -4.019531 C 15.488281 -4.3125 15.488281 -4.550781 15.488281 -4.84375 C 15.539062 -4.894531 15.621094 -5.082031 15.566406 -5.164062 C 15.539062 -5.054688 15.539062 -4.949219 15.460938 -4.976562 C 15.488281 -5.003906 15.488281 -5.109375 15.488281 -5.1875 C 15.488281 -5.296875 15.460938 -5.402344 15.460938 -5.429688 L 15.460938 -5.695312 C 15.460938 -5.746094 15.460938 -5.828125 15.40625 -5.90625 C 15.40625 -5.933594 15.328125 -5.855469 15.328125 -5.960938 C 15.355469 -6.066406 15.328125 -6.171875 15.328125 -6.28125 C 15.300781 -6.332031 15.300781 -6.386719 15.300781 -6.441406 L 15.300781 -6.597656 C 15.273438 -6.597656 15.246094 -6.652344 15.246094 -6.679688 C 15.195312 -6.707031 15.195312 -6.757812 15.167969 -6.785156 C 15.140625 -6.890625 15.140625 -6.972656 15.140625 -7.023438 C 15.089844 -7.105469 15.113281 -6.890625 15.089844 -6.972656 L 15.035156 -7.105469 C 14.980469 -7.183594 14.953125 -7.210938 14.953125 -7.292969 C 14.929688 -7.34375 14.902344 -7.449219 14.902344 -7.558594 C 14.847656 -7.609375 14.769531 -7.609375 14.742188 -7.71875 C 14.714844 -7.742188 14.820312 -7.71875 14.769531 -7.742188 C 14.6875 -7.824219 14.714844 -7.664062 14.664062 -7.664062 C 14.609375 -7.742188 14.554688 -7.742188 14.503906 -7.742188 C 14.503906 -7.824219 14.449219 -7.875 14.421875 -7.929688 C 14.34375 -7.957031 14.316406 -7.984375 14.261719 -8.0625 C 14.238281 -8.089844 14.210938 -8.167969 14.183594 -8.195312 C 14.101562 -8.277344 14.078125 -8.355469 14.050781 -8.382812 C 13.96875 -8.460938 13.863281 -8.460938 13.8125 -8.59375 C 13.757812 -8.621094 13.757812 -8.78125 13.652344 -8.808594 C 13.597656 -8.835938 13.625 -8.78125 13.570312 -8.808594 C 13.332031 -9.046875 13.066406 -9.234375 12.800781 -9.3125 C 12.828125 -9.261719 12.90625 -9.234375 12.933594 -9.234375 C 12.984375 -9.234375 13.011719 -9.207031 13.039062 -9.152344 C 13.066406 -9.128906 13.144531 -9.101562 13.171875 -9.046875 C 13.226562 -9.019531 13.277344 -8.941406 13.386719 -8.914062 L 13.464844 -8.808594 C 13.542969 -8.808594 13.570312 -8.78125 13.597656 -8.726562 C 13.597656 -8.621094 13.757812 -8.621094 13.703125 -8.515625 C 13.785156 -8.570312 13.757812 -8.59375 13.785156 -8.570312 C 13.8125 -8.515625 13.785156 -8.515625 13.8125 -8.488281 C 13.703125 -8.460938 13.785156 -8.382812 13.757812 -8.355469 C 13.917969 -8.089844 14.078125 -7.929688 14.210938 -7.636719 C 14.238281 -7.609375 14.238281 -7.71875 14.261719 -7.664062 C 14.289062 -7.609375 14.316406 -7.558594 14.316406 -7.53125 L 14.421875 -7.398438 C 14.34375 -7.316406 14.34375 -7.238281 14.261719 -7.238281 C 14.210938 -7.425781 14.078125 -7.609375 13.96875 -7.769531 C 13.835938 -7.957031 13.675781 -8.144531 13.570312 -8.277344 C 13.464844 -8.382812 13.4375 -8.515625 13.332031 -8.515625 C 13.386719 -8.460938 13.410156 -8.382812 13.4375 -8.300781 C 13.464844 -8.195312 13.492188 -8.144531 13.542969 -8.0625 C 13.652344 -7.929688 13.835938 -7.742188 13.890625 -7.558594 C 13.917969 -7.53125 13.890625 -7.503906 13.917969 -7.449219 C 13.96875 -7.398438 14.023438 -7.34375 14.023438 -7.316406 C 14.050781 -7.292969 14.023438 -7.238281 14.023438 -7.210938 C 14.050781 -7.132812 14.128906 -7.105469 14.183594 -7 C 14.210938 -6.867188 14.183594 -6.679688 14.238281 -6.492188 C 14.210938 -6.464844 14.128906 -6.464844 14.101562 -6.492188 C 14.101562 -6.652344 14.078125 -6.679688 14.078125 -6.707031 C 14.050781 -6.785156 14.050781 -6.867188 14.023438 -6.917969 C 14.023438 -6.890625 13.996094 -6.890625 13.96875 -6.890625 C 13.96875 -6.972656 13.96875 -7 13.917969 -7.023438 C 13.96875 -6.890625 13.835938 -6.867188 13.785156 -6.890625 C 13.757812 -6.972656 13.703125 -7.078125 13.675781 -7.132812 C 13.652344 -7.238281 13.625 -7.316406 13.570312 -7.398438 C 13.464844 -7.558594 13.410156 -7.742188 13.359375 -7.851562 C 13.277344 -7.851562 13.226562 -7.851562 13.199219 -7.875 C 13.117188 -7.984375 12.984375 -8.144531 12.851562 -8.25 C 12.746094 -8.355469 12.613281 -8.460938 12.480469 -8.515625 C 12.613281 -8.382812 12.746094 -8.277344 12.851562 -8.144531 C 13.011719 -7.984375 13.171875 -7.851562 13.277344 -7.664062 C 13.277344 -7.636719 13.226562 -7.636719 13.253906 -7.609375 C 13.410156 -7.503906 13.492188 -7.292969 13.570312 -7.105469 C 13.492188 -7.078125 13.464844 -6.972656 13.410156 -6.890625 C 13.492188 -6.679688 13.492188 -6.464844 13.464844 -6.28125 C 13.410156 -6.066406 13.386719 -5.90625 13.359375 -5.722656 C 13.332031 -5.722656 13.277344 -5.695312 13.253906 -5.640625 C 13.226562 -5.695312 13.171875 -5.722656 13.144531 -5.746094 C 13.144531 -5.828125 13.117188 -5.855469 13.144531 -5.933594 C 13.039062 -6.066406 13.011719 -6.253906 12.984375 -6.464844 C 12.933594 -6.679688 12.851562 -6.867188 12.773438 -7 C 12.691406 -7 12.613281 -6.917969 12.558594 -6.890625 L 12.640625 -6.679688 C 12.691406 -6.597656 12.71875 -6.492188 12.691406 -6.441406 C 12.613281 -6.359375 12.535156 -6.359375 12.480469 -6.359375 C 12.402344 -6.359375 12.347656 -6.386719 12.347656 -6.464844 C 12.292969 -6.546875 12.265625 -6.679688 12.214844 -6.785156 L 12.109375 -7.023438 C 11.949219 -7.183594 11.789062 -7.292969 11.683594 -7.316406 C 11.734375 -7.292969 11.789062 -7.210938 11.867188 -7.132812 C 11.949219 -7.078125 12 -7 12.082031 -6.917969 C 12.082031 -6.890625 12.109375 -6.8125 12.132812 -6.757812 C 12.160156 -6.679688 12.1875 -6.652344 12.160156 -6.574219 C 11.976562 -6.492188 11.867188 -6.546875 11.789062 -6.597656 C 11.839844 -6.546875 11.789062 -6.441406 11.839844 -6.359375 L 11.867188 -6.253906 C 11.894531 -6.253906 11.894531 -6.226562 11.894531 -6.171875 L 11.839844 -6.171875 C 11.839844 -6.148438 11.867188 -6.121094 11.867188 -6.121094 C 11.894531 -6.066406 11.894531 -6.066406 11.894531 -6.039062 C 11.894531 -6.015625 11.894531 -6.015625 11.867188 -5.960938 L 11.867188 -5.695312 C 11.867188 -5.613281 11.867188 -5.535156 11.839844 -5.429688 C 11.839844 -5.429688 11.789062 -5.402344 11.789062 -5.402344 C 11.734375 -5.402344 11.789062 -5.402344 11.761719 -5.375 L 11.761719 -5.320312 C 11.761719 -5.296875 11.734375 -5.296875 11.734375 -5.296875 L 11.707031 -5.1875 C 11.683594 -5.164062 11.65625 -5.082031 11.628906 -5.003906 C 11.574219 -4.976562 11.523438 -4.976562 11.523438 -4.894531 C 11.496094 -4.894531 11.46875 -4.976562 11.46875 -4.949219 C 11.335938 -4.871094 11.230469 -4.789062 11.042969 -4.761719 C 11.015625 -4.761719 11.015625 -4.84375 10.988281 -4.789062 C 10.988281 -4.789062 11.015625 -4.761719 10.988281 -4.761719 C 10.9375 -4.761719 10.910156 -4.761719 10.910156 -4.789062 C 10.804688 -4.789062 10.644531 -4.761719 10.484375 -4.738281 C 10.296875 -4.683594 10.136719 -4.65625 9.925781 -4.65625 C 9.710938 -4.65625 9.5 -4.683594 9.285156 -4.738281 C 9.152344 -4.761719 9.019531 -4.761719 8.941406 -4.761719 C 8.808594 -4.789062 8.703125 -4.789062 8.59375 -4.84375 C 8.515625 -4.871094 8.460938 -4.871094 8.355469 -4.894531 L 8.25 -4.894531 C 8.222656 -4.949219 8.167969 -4.949219 8.117188 -4.949219 C 8.0625 -4.976562 7.957031 -4.976562 7.902344 -4.976562 C 7.851562 -5.003906 7.796875 -5.054688 7.71875 -5.109375 C 7.371094 -5.1875 7.078125 -5.375 6.8125 -5.535156 C 6.785156 -5.589844 6.730469 -5.613281 6.679688 -5.640625 L 6.652344 -5.695312 L 6.625 -5.722656 C 6.597656 -5.722656 6.574219 -5.746094 6.574219 -5.800781 C 6.464844 -5.828125 6.414062 -5.933594 6.332031 -5.960938 C 6.332031 -6.015625 6.308594 -6.015625 6.253906 -6.015625 L 6.226562 -6.039062 C 6.171875 -6.066406 6.199219 -6.148438 6.148438 -6.226562 C 6.121094 -6.253906 6.039062 -6.28125 5.988281 -6.359375 C 5.933594 -6.441406 5.882812 -6.464844 5.828125 -6.546875 C 5.800781 -6.597656 5.746094 -6.679688 5.722656 -6.785156 C 5.695312 -6.867188 5.667969 -6.917969 5.613281 -7 C 5.589844 -7.078125 5.5625 -7.105469 5.535156 -7.132812 C 5.535156 -7.132812 5.507812 -7.183594 5.507812 -7.210938 C 5.480469 -7.210938 5.480469 -7.238281 5.480469 -7.292969 C 5.457031 -7.316406 5.457031 -7.425781 5.457031 -7.503906 C 5.402344 -7.53125 5.402344 -7.558594 5.375 -7.636719 L 5.347656 -7.71875 L 5.320312 -7.742188 C 5.320312 -7.824219 5.296875 -7.851562 5.269531 -7.929688 L 5.269531 -8.0625 C 5.242188 -8.089844 5.242188 -8.144531 5.242188 -8.167969 C 5.242188 -8.167969 5.242188 -8.195312 5.242188 -8.277344 L 5.242188 -8.460938 C 5.242188 -8.570312 5.242188 -8.59375 5.242188 -8.675781 L 5.242188 -8.808594 C 5.1875 -8.808594 5.1875 -8.835938 5.1875 -8.886719 C 5.242188 -9.207031 5.269531 -9.578125 5.296875 -9.871094 L 5.375 -10.085938 C 5.375 -10.113281 5.375 -10.191406 5.402344 -10.273438 L 5.402344 -10.484375 C 5.457031 -10.511719 5.457031 -10.511719 5.457031 -10.539062 C 5.457031 -10.589844 5.480469 -10.644531 5.480469 -10.699219 C 5.507812 -10.722656 5.507812 -10.722656 5.535156 -10.722656 C 5.589844 -10.832031 5.613281 -10.9375 5.667969 -11.042969 L 5.746094 -11.363281 C 5.800781 -11.574219 5.882812 -11.789062 5.988281 -11.921875 C 5.960938 -12.082031 6.121094 -12.132812 6.171875 -12.214844 C 6.226562 -12.292969 6.253906 -12.347656 6.253906 -12.425781 C 6.308594 -12.453125 6.332031 -12.535156 6.359375 -12.613281 C 6.359375 -12.640625 6.414062 -12.640625 6.441406 -12.667969 C 6.464844 -12.71875 6.519531 -12.773438 6.546875 -12.851562 C 6.574219 -12.878906 6.574219 -12.960938 6.625 -13.039062 C 6.652344 -13.09375 6.757812 -13.199219 6.839844 -13.277344 C 6.945312 -13.359375 7.023438 -13.410156 7.050781 -13.519531 C 7.078125 -13.519531 7.105469 -13.570312 7.105469 -13.570312 C 7.15625 -13.597656 7.183594 -13.597656 7.210938 -13.625 C 7.238281 -13.675781 7.292969 -13.703125 7.316406 -13.703125 C 7.398438 -13.730469 7.425781 -13.785156 7.449219 -13.835938 C 7.503906 -13.890625 7.53125 -13.917969 7.582031 -13.945312 C 7.71875 -14.023438 7.851562 -14.128906 7.957031 -14.261719 C 8.035156 -14.34375 8.089844 -14.371094 8.167969 -14.421875 C 8.222656 -14.449219 8.25 -14.476562 8.277344 -14.527344 C 8.300781 -14.554688 8.328125 -14.554688 8.382812 -14.554688 C 8.433594 -14.554688 8.488281 -14.582031 8.542969 -14.582031 C 8.59375 -14.636719 8.648438 -14.636719 8.675781 -14.6875 C 8.808594 -14.6875 8.914062 -14.769531 9.019531 -14.847656 C 9.179688 -14.875 9.339844 -14.902344 9.445312 -14.902344 C 9.527344 -14.953125 9.554688 -14.953125 9.605469 -14.980469 L 9.765625 -14.980469 C 9.792969 -14.980469 9.820312 -15.007812 9.820312 -15.007812 C 9.847656 -15.007812 9.871094 -15.007812 9.925781 -14.980469 C 9.980469 -14.980469 10.003906 -14.980469 10.03125 -14.953125 C 10.085938 -14.847656 10.085938 -14.796875 10.136719 -14.847656 C 10.164062 -14.847656 10.191406 -14.875 10.191406 -14.902344 C 10.246094 -14.980469 10.273438 -15.113281 10.378906 -15.089844 C 10.457031 -15.007812 10.457031 -14.953125 10.511719 -14.796875 C 10.5625 -14.769531 10.589844 -14.769531 10.617188 -14.769531 C 10.644531 -14.769531 10.644531 -14.769531 10.671875 -14.796875 C 10.804688 -14.769531 10.855469 -14.636719 10.9375 -14.636719 C 11.015625 -14.636719 11.042969 -14.6875 11.097656 -14.6875 C 11.125 -14.6875 11.148438 -14.6875 11.203125 -14.664062 L 11.257812 -14.664062 C 11.308594 -14.636719 11.363281 -14.636719 11.441406 -14.636719 C 11.550781 -14.636719 11.65625 -14.742188 11.761719 -14.742188 C 11.867188 -14.742188 11.894531 -14.742188 11.949219 -14.769531 C 12 -14.769531 12.054688 -14.769531 12.109375 -14.769531 L 12.1875 -14.769531 C 12.292969 -14.769531 12.347656 -14.769531 12.402344 -14.847656 C 12.425781 -14.847656 12.480469 -14.875 12.535156 -14.875 C 12.558594 -14.902344 12.585938 -14.902344 12.640625 -14.902344 C 12.746094 -14.953125 12.800781 -14.953125 12.90625 -14.980469 L 12.960938 -14.980469 C 13.144531 -15.007812 13.332031 -15.167969 13.542969 -15.222656 C 13.625 -15.273438 13.703125 -15.328125 13.835938 -15.378906 C 13.863281 -15.378906 13.917969 -15.378906 13.996094 -15.40625 L 14.183594 -15.40625 C 14.238281 -15.433594 14.316406 -15.59375 14.449219 -15.621094 C 14.503906 -15.648438 14.554688 -15.648438 14.636719 -15.699219 C 14.820312 -15.832031 14.847656 -16.125 15.089844 -16.152344 C 15.113281 -16.230469 15.089844 -16.257812 15.113281 -16.257812 C 15.300781 -16.605469 15.378906 -16.925781 15.566406 -17.21875 C 15.539062 -17.429688 15.671875 -17.617188 15.671875 -17.828125 C 15.671875 -17.960938 15.566406 -18.09375 15.539062 -18.203125 Z M 11.921875 -9.527344 C 11.867188 -9.554688 11.789062 -9.554688 11.734375 -9.554688 C 11.761719 -9.527344 11.839844 -9.527344 11.894531 -9.472656 C 11.949219 -9.445312 12 -9.445312 12.082031 -9.472656 C 12 -9.472656 11.949219 -9.472656 11.921875 -9.527344 Z M 12.132812 -9.445312 C 12.214844 -9.445312 12.320312 -9.421875 12.375 -9.445312 C 12.292969 -9.445312 12.1875 -9.472656 12.132812 -9.445312 Z M 12.480469 -9.421875 C 12.535156 -9.367188 12.585938 -9.367188 12.613281 -9.367188 C 12.613281 -9.421875 12.507812 -9.445312 12.480469 -9.421875 Z M 11.574219 -9.261719 C 11.65625 -9.261719 11.707031 -9.234375 11.734375 -9.234375 C 11.789062 -9.234375 11.867188 -9.234375 11.921875 -9.3125 C 11.839844 -9.3125 11.734375 -9.3125 11.65625 -9.3125 L 11.523438 -9.339844 L 11.125 -9.339844 C 11.042969 -9.3125 10.9375 -9.3125 10.882812 -9.234375 C 10.855469 -9.261719 10.804688 -9.261719 10.804688 -9.261719 C 10.777344 -9.234375 10.722656 -9.234375 10.671875 -9.234375 C 10.644531 -9.207031 10.589844 -9.207031 10.5625 -9.207031 C 10.484375 -9.207031 10.429688 -9.152344 10.40625 -9.152344 C 10.351562 -9.128906 10.296875 -9.128906 10.273438 -9.101562 C 10.296875 -9.101562 10.378906 -9.101562 10.457031 -9.128906 L 10.644531 -9.152344 L 10.671875 -9.101562 C 10.832031 -9.234375 11.097656 -9.234375 11.257812 -9.234375 C 11.335938 -9.339844 11.46875 -9.3125 11.574219 -9.261719 Z M 12.613281 -9.339844 C 12.667969 -9.339844 12.746094 -9.3125 12.800781 -9.3125 C 12.746094 -9.3125 12.691406 -9.339844 12.613281 -9.339844 Z M 11.921875 -9.261719 C 11.949219 -9.261719 12 -9.234375 12 -9.261719 C 12.1875 -9.234375 11.949219 -9.339844 11.921875 -9.261719 Z M 11.308594 -9.234375 C 11.308594 -9.207031 11.335938 -9.179688 11.335938 -9.152344 C 11.335938 -9.207031 11.363281 -9.234375 11.308594 -9.234375 Z M 12.320312 -9.234375 C 12.292969 -9.234375 12.265625 -9.234375 12.214844 -9.234375 L 12.160156 -9.234375 C 12.214844 -9.234375 12.320312 -9.152344 12.375 -9.207031 C 12.347656 -9.207031 12.347656 -9.234375 12.320312 -9.234375 Z M 11.441406 -9.207031 C 11.414062 -9.207031 11.414062 -9.152344 11.335938 -9.152344 C 11.390625 -9.152344 11.441406 -9.152344 11.441406 -9.207031 Z M 11.441406 -8.996094 C 11.496094 -8.996094 11.523438 -8.941406 11.574219 -8.996094 Z M 11.550781 -8.78125 C 11.628906 -8.78125 11.65625 -8.78125 11.707031 -8.808594 C 11.65625 -8.808594 11.550781 -8.808594 11.550781 -8.78125 Z M 11.789062 -8.78125 C 11.683594 -8.808594 11.789062 -8.726562 11.894531 -8.726562 C 11.921875 -8.726562 11.921875 -8.726562 11.921875 -8.78125 Z M 12.082031 -8.703125 C 12.054688 -8.726562 11.976562 -8.726562 11.949219 -8.78125 C 12.054688 -8.675781 12.214844 -8.59375 12.347656 -8.59375 C 12.292969 -8.621094 12.265625 -8.621094 12.1875 -8.675781 Z M 13.144531 -8.726562 C 13.144531 -8.703125 13.117188 -8.675781 13.117188 -8.675781 C 13.144531 -8.59375 13.171875 -8.621094 13.199219 -8.675781 Z M 11.839844 -7.929688 C 11.761719 -7.929688 11.707031 -7.957031 11.65625 -7.957031 C 11.550781 -7.957031 11.46875 -7.984375 11.414062 -7.957031 L 11.496094 -7.957031 C 11.496094 -7.957031 11.523438 -7.929688 11.550781 -7.929688 C 11.574219 -7.875 11.574219 -7.875 11.628906 -7.929688 L 11.628906 -7.851562 C 11.65625 -7.851562 11.683594 -7.875 11.707031 -7.851562 C 11.734375 -7.957031 11.789062 -7.851562 11.839844 -7.929688 Z M 11.707031 -7.742188 C 11.734375 -7.851562 11.707031 -7.824219 11.707031 -7.851562 C 11.707031 -7.824219 11.683594 -7.824219 11.683594 -7.769531 C 11.707031 -7.824219 11.707031 -7.742188 11.707031 -7.742188 Z M 14.34375 -7.742188 C 14.421875 -7.769531 14.449219 -7.742188 14.503906 -7.71875 C 14.527344 -7.636719 14.554688 -7.558594 14.636719 -7.609375 C 14.664062 -7.503906 14.664062 -7.449219 14.714844 -7.425781 C 14.742188 -7.316406 14.769531 -7.292969 14.820312 -7.210938 C 14.820312 -7.132812 14.847656 -7.105469 14.847656 -7.023438 C 14.742188 -7.023438 14.769531 -6.972656 14.714844 -6.972656 C 14.6875 -7.078125 14.636719 -7.132812 14.609375 -7.238281 C 14.527344 -7.316406 14.503906 -7.425781 14.503906 -7.503906 C 14.503906 -7.53125 14.449219 -7.425781 14.421875 -7.503906 C 14.421875 -7.53125 14.421875 -7.636719 14.34375 -7.742188 Z M 13.757812 -7.449219 C 13.730469 -7.53125 13.675781 -7.609375 13.652344 -7.558594 C 13.675781 -7.53125 13.703125 -7.53125 13.757812 -7.449219 Z M 11.523438 -7.503906 C 11.550781 -7.503906 11.550781 -7.503906 11.574219 -7.53125 L 11.46875 -7.53125 C 11.496094 -7.53125 11.496094 -7.503906 11.523438 -7.503906 Z M 11.628906 -7.503906 C 11.628906 -7.503906 11.65625 -7.449219 11.65625 -7.503906 C 11.65625 -7.53125 11.628906 -7.53125 11.628906 -7.503906 Z M 13.835938 -7.183594 C 13.863281 -7.132812 13.863281 -7.105469 13.917969 -7.105469 C 13.917969 -7.132812 13.863281 -7.183594 13.863281 -7.210938 C 13.863281 -7.238281 13.863281 -7.316406 13.835938 -7.316406 C 13.8125 -7.316406 13.785156 -7.398438 13.757812 -7.449219 L 13.785156 -7.316406 C 13.8125 -7.292969 13.8125 -7.238281 13.835938 -7.183594 Z M 11.46875 -7.34375 C 11.414062 -7.34375 11.308594 -7.34375 11.230469 -7.316406 L 11.46875 -7.316406 C 11.523438 -7.316406 11.574219 -7.316406 11.65625 -7.292969 C 11.65625 -7.316406 11.65625 -7.316406 11.683594 -7.316406 C 11.574219 -7.34375 11.523438 -7.34375 11.46875 -7.34375 Z M 11.125 -7.210938 C 11.125 -7.183594 11.203125 -7.183594 11.148438 -7.238281 Z M 11.203125 -7.105469 C 11.148438 -7.132812 11.148438 -7.050781 11.148438 -7.023438 C 11.148438 -7.078125 11.203125 -7.078125 11.203125 -7.105469 Z M 14.742188 -6.917969 C 14.769531 -6.917969 14.769531 -6.917969 14.769531 -6.972656 C 14.875 -6.917969 14.769531 -6.8125 14.742188 -6.917969 Z M 12.425781 -6.546875 C 12.425781 -6.464844 12.507812 -6.464844 12.507812 -6.441406 C 12.507812 -6.464844 12.480469 -6.492188 12.480469 -6.546875 C 12.425781 -6.574219 12.402344 -6.597656 12.425781 -6.679688 C 12.402344 -6.652344 12.402344 -6.574219 12.425781 -6.546875 Z M 15.992188 -6.679688 C 16.019531 -6.652344 16.019531 -6.574219 16.019531 -6.492188 C 16.046875 -6.464844 16.046875 -6.441406 16.097656 -6.386719 C 16.097656 -6.492188 16.046875 -6.679688 15.992188 -6.679688 Z M 11.257812 -6.386719 C 11.203125 -6.386719 11.257812 -6.464844 11.203125 -6.464844 C 11.148438 -6.441406 11.230469 -6.441406 11.203125 -6.386719 Z M 11.28125 -6.359375 C 11.308594 -6.332031 11.308594 -6.359375 11.308594 -6.386719 C 11.28125 -6.386719 11.28125 -6.386719 11.28125 -6.359375 Z M 15.378906 -6.039062 C 15.378906 -6.066406 15.40625 -6.171875 15.378906 -6.171875 C 15.355469 -6.148438 15.378906 -6.039062 15.378906 -6.039062 Z M 16.097656 -5.507812 C 16.097656 -5.480469 16.046875 -5.402344 16.046875 -5.402344 C 16.046875 -5.375 16.046875 -5.320312 16.097656 -5.320312 C 16.125 -5.375 16.125 -5.507812 16.097656 -5.507812 Z M 15.964844 -5.054688 C 15.964844 -5.109375 15.992188 -5.1875 15.992188 -5.214844 C 15.914062 -5.269531 15.941406 -5.109375 15.964844 -5.054688 Z M 15.964844 -5.054688 "/></g></g><g style="fill:rgb(0%,0%,0%);fill-opacity:1;"><g transform="translate(21.778902, 27.81409)"><path style="stroke:none;" d=""/></g></g><g style="fill:rgb(0%,0%,0%);fill-opacity:1;"><g transform="translate(34.414836, 27.81409)"><path style="stroke:none;" d=""/></g></g><g style="fill:rgb(0%,0%,0%);fill-opacity:1;"><g transform="translate(47.048105, 27.81409)"><path style="stroke:none;" d="M 11.257812 -2.5 C 11.390625 -2.660156 11.257812 -2.765625 11.390625 -2.980469 C 11.335938 -3.113281 11.257812 -3.246094 11.308594 -3.484375 C 11.203125 -3.617188 11.070312 -3.726562 10.964844 -3.859375 C 10.882812 -3.910156 10.832031 -3.992188 10.777344 -4.042969 C 10.75 -4.070312 10.699219 -4.125 10.671875 -4.125 C 10.617188 -4.152344 10.617188 -4.203125 10.617188 -4.230469 C 10.457031 -4.335938 10.378906 -4.417969 10.21875 -4.496094 C 10.136719 -4.578125 9.980469 -4.683594 9.871094 -4.710938 C 9.738281 -4.761719 9.554688 -4.789062 9.421875 -4.816406 C 9.367188 -4.84375 9.3125 -4.871094 9.207031 -4.871094 C 9.152344 -4.894531 9.074219 -4.894531 8.996094 -4.894531 C 8.703125 -4.921875 8.410156 -4.921875 8.089844 -4.921875 C 7.636719 -4.894531 7.183594 -4.894531 6.730469 -4.871094 C 6.867188 -4.921875 6.730469 -4.84375 6.867188 -4.894531 C 6.839844 -4.949219 6.730469 -4.921875 6.625 -4.921875 C 6.519531 -4.921875 6.414062 -4.921875 6.464844 -5.003906 C 6.308594 -4.894531 6.171875 -5.003906 6.015625 -4.921875 C 6.015625 -4.949219 6.015625 -5.003906 5.988281 -4.976562 C 5.933594 -4.921875 6.039062 -4.949219 5.988281 -4.894531 C 5.773438 -4.871094 5.667969 -4.894531 5.480469 -4.816406 C 5.480469 -4.84375 5.457031 -4.84375 5.457031 -4.84375 L 5.457031 -4.871094 C 5.242188 -5.109375 5.375 -5.722656 5.457031 -6.09375 C 5.457031 -6.09375 5.457031 -6.121094 5.429688 -6.121094 C 5.800781 -7.769531 6.039062 -9.527344 6.199219 -11.042969 C 6.253906 -11.46875 6.308594 -11.921875 6.308594 -12.292969 L 6.308594 -12.480469 C 6.332031 -12.535156 6.332031 -12.585938 6.332031 -12.640625 C 6.332031 -12.691406 6.359375 -12.71875 6.359375 -12.746094 C 6.386719 -12.828125 6.359375 -12.878906 6.359375 -12.933594 C 6.359375 -12.960938 6.359375 -13.039062 6.359375 -13.09375 L 6.359375 -13.519531 C 6.386719 -13.570312 6.386719 -13.652344 6.359375 -13.730469 L 6.359375 -13.785156 C 6.414062 -13.96875 6.441406 -14.210938 6.386719 -14.394531 C 6.441406 -14.636719 6.414062 -14.875 6.414062 -15.089844 C 6.441406 -15.515625 6.492188 -15.941406 6.464844 -16.3125 C 6.492188 -16.417969 6.519531 -16.550781 6.519531 -16.65625 C 6.519531 -16.871094 6.464844 -17.136719 6.625 -17.324219 C 6.945312 -17.457031 6.464844 -17.535156 6.519531 -17.695312 C 6.597656 -17.800781 6.679688 -17.800781 6.8125 -17.882812 C 6.839844 -17.960938 6.839844 -18.015625 6.785156 -18.09375 C 6.839844 -18.203125 6.972656 -18.308594 6.972656 -18.414062 C 6.972656 -18.46875 6.917969 -18.519531 6.917969 -18.601562 C 6.917969 -18.734375 6.972656 -18.839844 6.945312 -19 C 6.917969 -19.105469 6.839844 -19.210938 6.8125 -19.347656 C 6.8125 -19.425781 6.785156 -19.453125 6.757812 -19.53125 C 6.707031 -19.71875 6.730469 -19.851562 6.597656 -19.929688 C 6.492188 -20.039062 6.414062 -20.222656 6.332031 -20.304688 C 6.308594 -20.304688 6.308594 -20.355469 6.308594 -20.382812 C 6.09375 -20.648438 5.722656 -20.757812 5.5625 -21.101562 C 5.457031 -21.101562 5.347656 -21.101562 5.242188 -21.128906 C 5.1875 -21.15625 5.164062 -21.234375 5.136719 -21.234375 C 4.921875 -21.316406 4.710938 -21.183594 4.578125 -21.339844 C 4.523438 -21.339844 4.523438 -21.289062 4.496094 -21.289062 C 4.152344 -21.234375 3.859375 -21.128906 3.566406 -21.128906 C 3.40625 -21.023438 3.246094 -21.023438 3.058594 -20.914062 C 2.980469 -20.890625 2.875 -20.78125 2.820312 -20.703125 C 2.6875 -20.648438 2.609375 -20.542969 2.5 -20.488281 C 2.394531 -20.464844 2.394531 -20.382812 2.289062 -20.355469 L 2.074219 -20.0625 C 2.023438 -20.039062 1.996094 -20.039062 1.96875 -20.039062 C 1.78125 -19.796875 1.570312 -19.53125 1.515625 -19.210938 C 1.515625 -19.210938 1.488281 -19.160156 1.515625 -19.132812 C 1.515625 -18.921875 1.464844 -18.574219 1.355469 -18.441406 C 1.332031 -18.386719 1.355469 -18.386719 1.355469 -18.386719 C 1.277344 -18.335938 1.144531 -18.203125 1.144531 -18.09375 C 1.144531 -18.09375 1.25 -18.042969 1.277344 -17.960938 C 1.304688 -17.855469 1.144531 -17.722656 1.171875 -17.644531 C 1.199219 -17.589844 1.277344 -17.535156 1.304688 -17.507812 C 1.355469 -17.375 1.332031 -17.109375 1.304688 -17.03125 C 1.277344 -16.925781 1.199219 -16.898438 1.199219 -16.816406 C 1.222656 -16.792969 1.332031 -16.738281 1.410156 -16.765625 C 1.648438 -16.632812 1.488281 -16.207031 1.570312 -15.941406 C 1.515625 -15.753906 1.648438 -15.621094 1.625 -15.433594 C 1.625 -15.40625 1.597656 -15.355469 1.597656 -15.300781 C 1.597656 -15.246094 1.648438 -15.195312 1.675781 -15.089844 C 1.703125 -14.980469 1.703125 -14.875 1.757812 -14.769531 C 1.570312 -14.582031 1.757812 -14.476562 1.757812 -14.34375 C 1.757812 -14.261719 1.730469 -14.238281 1.730469 -14.15625 C 1.730469 -14.128906 1.757812 -14.078125 1.757812 -13.996094 C 1.757812 -13.96875 1.703125 -13.917969 1.730469 -13.835938 C 1.730469 -13.785156 1.757812 -13.785156 1.757812 -13.730469 C 1.757812 -13.703125 1.703125 -13.675781 1.703125 -13.625 C 1.730469 -13.570312 1.757812 -13.542969 1.78125 -13.519531 C 1.78125 -13.332031 1.757812 -13.144531 1.835938 -12.984375 C 1.78125 -12.773438 1.835938 -12.613281 1.835938 -12.402344 C 1.835938 -12.292969 1.808594 -12.160156 1.78125 -12.054688 C 1.703125 -10.988281 1.542969 -9.847656 1.355469 -8.703125 C 1.222656 -8.167969 1.117188 -7.609375 0.984375 -7.050781 C 0.929688 -6.785156 0.878906 -6.519531 0.796875 -6.253906 C 0.71875 -5.988281 0.691406 -5.722656 0.585938 -5.457031 C 0.503906 -5.1875 0.480469 -4.894531 0.371094 -4.578125 C 0.371094 -4.550781 0.347656 -4.46875 0.320312 -4.417969 C 0.320312 -4.363281 0.292969 -4.335938 0.292969 -4.285156 C 0.292969 -4.203125 0.292969 -4.125 0.265625 -4.042969 C 0.265625 -3.964844 0.238281 -3.886719 0.238281 -3.804688 C 0.210938 -3.726562 0.210938 -3.644531 0.210938 -3.566406 C 0.1875 -3.460938 0.1875 -3.378906 0.1875 -3.273438 C 0.1875 -3.058594 0.210938 -2.847656 0.265625 -2.582031 C 0.292969 -2.367188 0.347656 -2.128906 0.453125 -1.890625 C 0.503906 -1.808594 0.503906 -1.757812 0.503906 -1.730469 C 0.558594 -1.648438 0.585938 -1.570312 0.636719 -1.542969 C 0.71875 -1.410156 0.773438 -1.304688 0.878906 -1.199219 C 0.929688 -1.117188 0.929688 -1.089844 1.011719 -1.039062 L 1.144531 -0.878906 C 1.25 -0.796875 1.355469 -0.691406 1.464844 -0.636719 C 1.542969 -0.613281 1.570312 -0.558594 1.597656 -0.53125 C 1.675781 -0.480469 1.757812 -0.480469 1.78125 -0.453125 C 1.808594 -0.425781 1.890625 -0.398438 1.941406 -0.371094 L 1.996094 -0.320312 L 2.074219 -0.292969 C 2.476562 -0.160156 2.820312 -0.078125 3.085938 -0.0546875 C 3.378906 -0.0273438 3.617188 -0.0546875 3.859375 -0.078125 C 3.964844 -0.105469 4.097656 -0.105469 4.203125 -0.132812 C 4.496094 -0.105469 4.761719 -0.105469 5.03125 -0.078125 C 5.320312 -0.0546875 5.589844 -0.0546875 5.882812 -0.0546875 L 6.707031 -0.0546875 C 6.972656 -0.0546875 7.238281 -0.0546875 7.53125 -0.078125 C 7.742188 -0.078125 7.929688 -0.078125 8.144531 -0.0546875 C 8.328125 -0.0546875 8.515625 -0.0546875 8.726562 -0.078125 C 8.941406 -0.105469 9.128906 -0.1875 9.3125 -0.265625 C 9.367188 -0.265625 9.421875 -0.292969 9.472656 -0.320312 C 9.527344 -0.347656 9.554688 -0.371094 9.578125 -0.425781 C 9.710938 -0.480469 9.765625 -0.53125 9.898438 -0.636719 C 9.871094 -0.613281 9.792969 -0.636719 9.847656 -0.664062 C 9.980469 -0.746094 10.136719 -0.878906 10.273438 -0.957031 C 10.40625 -1.0625 10.589844 -1.117188 10.699219 -1.199219 C 10.644531 -1.222656 10.5625 -1.144531 10.617188 -1.304688 C 10.671875 -1.332031 10.777344 -1.332031 10.832031 -1.382812 C 10.832031 -1.410156 10.832031 -1.488281 10.855469 -1.488281 C 10.9375 -1.515625 11.042969 -1.570312 11.097656 -1.675781 C 11.203125 -1.757812 11.257812 -1.863281 11.230469 -1.996094 C 11.308594 -2.074219 11.257812 -2.207031 11.335938 -2.339844 Z M 5.882812 -16.445312 C 5.960938 -16.550781 5.90625 -15.964844 5.90625 -15.539062 C 5.960938 -15.488281 5.960938 -15.699219 5.988281 -15.914062 C 6.066406 -14.929688 5.882812 -11.734375 5.773438 -9.710938 C 5.695312 -10.164062 5.667969 -10.671875 5.5625 -10.777344 C 5.667969 -12.851562 5.773438 -14.820312 5.882812 -16.445312 Z M 3.167969 -0.265625 C 3.007812 -0.265625 2.714844 -0.371094 2.449219 -0.453125 C 2.421875 -0.453125 2.394531 -0.453125 2.367188 -0.480469 C 2.339844 -0.480469 2.316406 -0.480469 2.289062 -0.480469 L 2.207031 -0.480469 C 2.183594 -0.480469 2.183594 -0.453125 2.074219 -0.503906 C 1.808594 -0.664062 1.542969 -0.796875 1.332031 -1.039062 C 1.25 -1.089844 1.171875 -1.117188 1.144531 -1.199219 C 1.089844 -1.277344 1.039062 -1.332031 0.957031 -1.382812 C 0.929688 -1.464844 0.90625 -1.515625 0.851562 -1.597656 L 0.773438 -1.703125 C 0.746094 -1.730469 0.746094 -1.757812 0.71875 -1.78125 L 0.71875 -1.914062 L 0.664062 -1.941406 L 0.664062 -1.96875 C 0.613281 -2.050781 0.585938 -2.15625 0.558594 -2.183594 C 0.53125 -2.261719 0.503906 -2.316406 0.503906 -2.367188 L 0.503906 -2.554688 C 0.480469 -2.609375 0.480469 -2.660156 0.480469 -2.714844 L 0.453125 -2.765625 L 0.453125 -2.875 C 0.453125 -2.925781 0.425781 -2.980469 0.425781 -3.035156 L 0.425781 -3.40625 C 0.425781 -3.460938 0.453125 -3.484375 0.453125 -3.539062 L 0.453125 -3.644531 L 0.503906 -3.859375 L 0.503906 -4.042969 L 0.558594 -4.257812 L 0.585938 -4.390625 L 0.664062 -4.65625 C 0.71875 -4.949219 0.824219 -5.242188 0.90625 -5.507812 L 0.984375 -5.960938 C 1.039062 -6.121094 1.0625 -6.28125 1.117188 -6.414062 C 1.144531 -6.546875 1.144531 -6.707031 1.199219 -6.839844 C 1.25 -7 1.277344 -7.132812 1.304688 -7.292969 C 1.355469 -7.582031 1.410156 -7.875 1.488281 -8.195312 C 1.570312 -8.78125 1.703125 -9.394531 1.78125 -10.003906 C 1.730469 -9.421875 1.625 -8.859375 1.542969 -8.277344 C 1.515625 -8.007812 1.464844 -7.71875 1.382812 -7.425781 C 1.355469 -7.15625 1.332031 -6.890625 1.25 -6.597656 C 1.144531 -6.28125 1.117188 -5.933594 1.011719 -5.613281 C 0.929688 -5.269531 0.851562 -4.921875 0.746094 -4.578125 L 0.691406 -4.285156 L 0.664062 -4.230469 L 0.636719 -4.097656 L 0.613281 -3.992188 C 0.613281 -3.9375 0.585938 -3.910156 0.585938 -3.859375 C 0.53125 -3.59375 0.503906 -3.246094 0.558594 -2.792969 C 0.585938 -2.582031 0.664062 -2.316406 0.746094 -2.023438 C 0.90625 -1.730469 1.089844 -1.4375 1.355469 -1.199219 C 1.570312 -0.929688 1.863281 -0.773438 2.15625 -0.664062 C 2.394531 -0.53125 2.632812 -0.480469 2.847656 -0.480469 C 2.925781 -0.453125 2.953125 -0.453125 3.035156 -0.453125 L 3.191406 -0.453125 C 3.246094 -0.453125 3.300781 -0.425781 3.328125 -0.425781 C 3.351562 -0.371094 3.328125 -0.292969 3.300781 -0.265625 Z M 3.167969 -0.265625 "/></g></g><g clip-rule="nonzero" clip-path="url(#clip1)"><path style=" stroke:none;fill-rule:nonzero;fill:rgb(0%,0%,0%);fill-opacity:1;" d="M 22.253906 15.503906 C 22.265625 15.441406 22.277344 15.378906 22.289062 15.316406 C 22.285156 15.328125 22.28125 15.335938 22.28125 15.347656 C 22.269531 15.398438 22.261719 15.453125 22.253906 15.503906 "/><path style=" stroke:none;fill-rule:nonzero;fill:rgb(0%,0%,0%);fill-opacity:1;" d="M 22.253906 15.503906 C 22.253906 15.515625 22.25 15.53125 22.246094 15.542969 C 22.25 15.53125 22.253906 15.515625 22.253906 15.503906 "/></g><g clip-rule="nonzero" clip-path="url(#clip2)"><path style=" stroke:none;fill-rule:nonzero;fill:rgb(0%,0%,0%);fill-opacity:1;" d="M 22.511719 14.316406 C 22.421875 14.644531 22.347656 14.980469 22.289062 15.316406 C 22.351562 14.980469 22.425781 14.648438 22.511719 14.316406 "/></g><g clip-rule="nonzero" clip-path="url(#clip3)"><path style=" stroke:none;fill-rule:nonzero;fill:rgb(0%,0%,0%);fill-opacity:1;" d="M 22.574219 19.585938 C 22.574219 19.589844 22.578125 19.589844 22.578125 19.585938 C 22.125 18.3125 22.042969 16.910156 22.246094 15.542969 C 22.023438 16.902344 22.109375 18.285156 22.574219 19.585938 "/></g><g clip-rule="nonzero" clip-path="url(#clip4)"><path style=" stroke:none;fill-rule:nonzero;fill:rgb(0%,0%,0%);fill-opacity:1;" d="M 41.066406 22.96875 C 40.160156 24.636719 38.816406 26.140625 37.007812 26.832031 C 36.945312 26.855469 36.882812 26.875 36.820312 26.894531 C 37.820312 26.464844 38.710938 25.785156 39.453125 24.992188 C 41.59375 22.714844 42.675781 19.390625 42.671875 16.296875 C 42.683594 16.765625 42.667969 17.234375 42.636719 17.6875 C 42.503906 19.550781 41.957031 21.328125 41.066406 22.96875 Z M 34.820312 27.183594 C 34.808594 27.183594 34.796875 27.183594 34.785156 27.183594 C 34.785156 27.183594 34.789062 27.183594 34.789062 27.183594 C 34.820312 27.164062 34.796875 27.117188 34.765625 27.125 C 34.695312 27.148438 34.628906 27.164062 34.5625 27.183594 C 34.421875 27.179688 34.28125 27.175781 34.140625 27.167969 C 33.738281 27.148438 33.339844 27.117188 32.9375 27.078125 C 33.066406 27.050781 33.191406 27.023438 33.316406 26.996094 C 33.957031 26.847656 34.582031 26.660156 35.175781 26.414062 C 36.304688 26.246094 37.421875 25.914062 38.402344 25.335938 C 39.6875 24.570312 40.488281 23.21875 41.011719 21.855469 C 41.097656 21.625 41.175781 21.394531 41.246094 21.160156 C 41.265625 21.164062 41.289062 21.160156 41.296875 21.132812 C 41.695312 19.621094 41.960938 17.96875 41.921875 16.34375 C 41.929688 14.925781 41.773438 13.488281 41.390625 12.121094 C 41.382812 12.089844 41.335938 12.101562 41.34375 12.132812 C 41.546875 12.917969 41.667969 13.722656 41.738281 14.535156 C 41.542969 13.492188 41.1875 12.488281 40.621094 11.574219 C 40.382812 11.191406 40.109375 10.839844 39.808594 10.511719 C 40.394531 10.953125 40.964844 11.4375 41.398438 12.011719 C 41.722656 12.53125 41.980469 13.09375 42.148438 13.691406 C 42.589844 15.253906 42.558594 16.9375 42.285156 18.527344 C 41.738281 21.683594 40.015625 25.050781 37.042969 26.542969 C 36.351562 26.890625 35.59375 27.089844 34.820312 27.183594 Z M 31.03125 27.382812 C 30.96875 27.375 30.914062 27.359375 30.851562 27.347656 C 31.109375 27.335938 31.367188 27.316406 31.621094 27.289062 C 32.113281 27.378906 32.617188 27.4375 33.121094 27.460938 C 32.4375 27.535156 31.75 27.519531 31.03125 27.382812 Z M 27.132812 25.785156 C 26.65625 25.480469 26.179688 25.132812 25.726562 24.746094 C 26.453125 25.328125 27.28125 25.78125 28.167969 26.0625 C 28.273438 26.109375 28.378906 26.15625 28.488281 26.199219 C 29.105469 26.523438 29.757812 26.796875 30.429688 27 C 30.789062 27.109375 31.15625 27.199219 31.527344 27.269531 C 31.269531 27.296875 31.007812 27.316406 30.75 27.324219 C 29.460938 27.042969 28.238281 26.488281 27.132812 25.785156 Z M 25.457031 24.28125 C 25.441406 24.269531 25.429688 24.253906 25.414062 24.242188 C 25.148438 23.777344 24.882812 23.308594 24.621094 22.828125 C 25.207031 23.648438 25.90625 24.382812 26.691406 25.015625 C 26.410156 24.910156 26.144531 24.789062 25.894531 24.644531 C 25.746094 24.53125 25.597656 24.410156 25.457031 24.28125 Z M 24.101562 22.699219 C 23.835938 22.175781 23.640625 21.609375 23.484375 21.046875 C 23.472656 20.996094 23.457031 20.941406 23.445312 20.890625 C 23.863281 21.882812 24.367188 22.839844 24.898438 23.734375 C 24.609375 23.414062 24.34375 23.070312 24.101562 22.699219 Z M 22.835938 19.871094 C 22.960938 20.492188 23.140625 21.101562 23.386719 21.675781 C 23.648438 22.292969 23.996094 22.875 24.40625 23.40625 C 23.5625 22.371094 22.949219 21.171875 22.835938 19.871094 Z M 23.25 20.40625 C 23.308594 20.6875 23.375 20.972656 23.453125 21.253906 C 23.519531 21.503906 23.605469 21.761719 23.703125 22.015625 C 23.648438 21.910156 23.589844 21.804688 23.535156 21.691406 C 23.164062 20.90625 22.945312 20.035156 22.828125 19.164062 C 22.949219 19.582031 23.089844 19.996094 23.25 20.40625 Z M 22.738281 18.183594 C 22.730469 18.074219 22.726562 17.964844 22.726562 17.855469 C 22.753906 18.09375 22.785156 18.332031 22.828125 18.570312 C 22.796875 18.441406 22.765625 18.3125 22.738281 18.183594 Z M 22.628906 17.605469 C 22.457031 16.539062 22.46875 15.449219 22.75 14.347656 C 23.148438 12.792969 23.976562 11.328125 25.03125 10.125 C 25.25 9.875 25.488281 9.632812 25.738281 9.40625 C 25.875 9.292969 26.015625 9.183594 26.15625 9.074219 C 26.210938 9.078125 26.265625 9.078125 26.320312 9.078125 C 25.78125 9.554688 25.289062 10.066406 24.867188 10.582031 C 24.824219 10.636719 24.78125 10.6875 24.738281 10.742188 C 24.707031 10.769531 24.675781 10.792969 24.644531 10.820312 C 24.8125 10.546875 25.003906 10.289062 25.222656 10.050781 C 25.234375 10.039062 25.214844 10.019531 25.203125 10.03125 C 24.816406 10.445312 24.507812 10.902344 24.257812 11.394531 C 23.519531 12.46875 22.976562 13.667969 22.777344 14.964844 C 22.671875 15.644531 22.636719 16.328125 22.660156 17.011719 C 22.644531 17.210938 22.632812 17.410156 22.628906 17.605469 Z M 26.570312 8.761719 C 26.734375 8.648438 26.902344 8.546875 27.074219 8.453125 C 26.832031 8.640625 26.59375 8.835938 26.363281 9.035156 C 26.3125 9.035156 26.257812 9.035156 26.207031 9.035156 C 26.328125 8.945312 26.445312 8.851562 26.570312 8.761719 Z M 27.699219 8.167969 C 28.007812 8.050781 28.332031 7.960938 28.660156 7.910156 C 28.597656 7.945312 28.535156 7.980469 28.472656 8.019531 C 28.066406 8.230469 27.675781 8.46875 27.296875 8.734375 C 27.171875 8.824219 27.050781 8.914062 26.929688 9.003906 C 26.808594 9.015625 26.691406 9.023438 26.570312 9.03125 C 26.925781 8.722656 27.304688 8.429688 27.699219 8.167969 Z M 29.800781 7.097656 C 30.941406 6.6875 32.203125 6.566406 33.371094 6.894531 C 33.03125 6.847656 32.691406 6.824219 32.351562 6.820312 C 31.8125 6.757812 31.308594 6.828125 30.820312 6.980469 C 30.355469 7.085938 29.902344 7.246094 29.46875 7.46875 C 29.445312 7.484375 29.4375 7.503906 29.445312 7.527344 C 29.214844 7.617188 28.992188 7.722656 28.777344 7.84375 C 28.492188 7.871094 28.214844 7.925781 27.945312 8.007812 C 28.53125 7.640625 29.152344 7.332031 29.800781 7.097656 Z M 35.410156 8.027344 C 35.75 8.144531 36.089844 8.273438 36.421875 8.414062 C 36.535156 8.46875 36.648438 8.527344 36.761719 8.582031 C 36.292969 8.441406 35.847656 8.242188 35.410156 8.027344 Z M 30.421875 7.238281 C 31.199219 7.019531 32.019531 6.972656 32.832031 7.039062 C 32.941406 7.0625 33.046875 7.09375 33.152344 7.128906 C 33.277344 7.167969 33.402344 7.214844 33.523438 7.261719 C 33.316406 7.222656 33.109375 7.183594 32.898438 7.15625 C 32.300781 7.078125 31.71875 7.085938 31.152344 7.15625 C 31.066406 7.160156 30.980469 7.164062 30.894531 7.171875 C 30.734375 7.183594 30.578125 7.207031 30.421875 7.238281 Z M 27.339844 8.945312 C 27.597656 8.734375 27.863281 8.53125 28.136719 8.34375 C 28.378906 8.199219 28.628906 8.066406 28.886719 7.945312 C 28.386719 8.253906 27.894531 8.585938 27.414062 8.929688 C 27.386719 8.933594 27.363281 8.941406 27.339844 8.945312 Z M 25.332031 10.265625 C 25.695312 9.847656 26.089844 9.449219 26.511719 9.082031 C 26.625 9.078125 26.734375 9.070312 26.847656 9.0625 C 26.332031 9.449219 25.832031 9.855469 25.332031 10.265625 Z M 27.0625 9.050781 C 26.835938 9.238281 26.617188 9.429688 26.398438 9.621094 C 26.144531 9.84375 25.898438 10.074219 25.65625 10.3125 C 25.550781 10.40625 25.441406 10.5 25.335938 10.597656 C 25.042969 10.859375 24.695312 11.167969 24.375 11.511719 C 24.59375 11.183594 24.828125 10.863281 25.082031 10.558594 C 25.742188 10.058594 26.390625 9.535156 27.0625 9.050781 Z M 22.921875 15.898438 C 22.957031 15.777344 22.996094 15.65625 23.035156 15.535156 C 23 16.257812 23.035156 16.984375 23.140625 17.703125 C 23.152344 18.132812 23.179688 18.5625 23.222656 18.984375 C 23.242188 19.195312 23.273438 19.402344 23.3125 19.613281 C 23.203125 19.238281 23.109375 18.855469 23.039062 18.46875 C 22.960938 17.617188 22.933594 16.753906 22.921875 15.898438 Z M 22.933594 17.746094 C 22.871094 17.214844 22.847656 16.679688 22.863281 16.140625 C 22.871094 16.101562 22.882812 16.066406 22.890625 16.03125 C 22.894531 16.601562 22.90625 17.175781 22.933594 17.746094 Z M 23.054688 15.1875 C 23.050781 15.25 23.050781 15.3125 23.046875 15.371094 C 23 15.480469 22.957031 15.59375 22.921875 15.707031 C 22.921875 15.59375 22.921875 15.484375 22.917969 15.371094 C 22.929688 15.253906 22.945312 15.136719 22.960938 15.015625 C 23.035156 14.492188 23.167969 13.980469 23.347656 13.488281 C 23.195312 14.046875 23.105469 14.621094 23.054688 15.1875 Z M 23.273438 14.996094 C 23.171875 15.828125 23.125 16.675781 23.140625 17.519531 C 23.046875 16.847656 23.015625 16.160156 23.058594 15.484375 C 23.117188 15.316406 23.191406 15.152344 23.273438 14.996094 Z M 23.066406 15.320312 C 23.132812 14.457031 23.316406 13.609375 23.625 12.828125 C 23.6875 12.695312 23.753906 12.5625 23.824219 12.433594 C 23.625 13.015625 23.484375 13.621094 23.382812 14.230469 C 23.347656 14.445312 23.316406 14.664062 23.285156 14.882812 C 23.207031 15.023438 23.132812 15.167969 23.066406 15.320312 Z M 27.464844 25.589844 C 27.136719 25.441406 26.824219 25.269531 26.523438 25.082031 C 26.644531 25.121094 26.769531 25.152344 26.898438 25.175781 C 27.082031 25.320312 27.269531 25.457031 27.464844 25.589844 Z M 32.367188 27.152344 C 32.347656 27.152344 32.328125 27.15625 32.308594 27.160156 C 32.125 27.136719 31.941406 27.113281 31.757812 27.082031 C 31.585938 27.050781 31.414062 27.019531 31.242188 26.980469 C 31.613281 27.046875 31.988281 27.105469 32.367188 27.152344 Z M 33.113281 27.234375 C 32.882812 27.21875 32.652344 27.199219 32.425781 27.175781 C 32.445312 27.171875 32.460938 27.167969 32.480469 27.164062 C 32.691406 27.191406 32.902344 27.210938 33.113281 27.234375 Z M 30.953125 26.796875 C 30.496094 26.707031 30.039062 26.601562 29.589844 26.46875 C 29.460938 26.417969 29.332031 26.367188 29.207031 26.308594 C 29.304688 26.324219 29.402344 26.339844 29.5 26.347656 C 29.578125 26.359375 29.597656 26.222656 29.515625 26.210938 C 29.183594 26.152344 28.859375 26.078125 28.542969 25.988281 C 28.183594 25.796875 27.835938 25.585938 27.503906 25.359375 C 27.859375 25.558594 28.226562 25.730469 28.609375 25.871094 C 28.644531 25.882812 28.667969 25.828125 28.636719 25.8125 C 28.507812 25.742188 28.382812 25.675781 28.261719 25.605469 C 28.550781 25.730469 28.847656 25.84375 29.144531 25.945312 C 30.722656 26.46875 32.421875 26.628906 34.074219 26.527344 C 34.328125 26.511719 34.585938 26.488281 34.84375 26.457031 C 34.179688 26.71875 33.492188 26.917969 32.796875 27.0625 C 32.179688 27 31.5625 26.914062 30.953125 26.796875 Z M 41.6875 15.476562 C 41.824219 17.027344 41.640625 18.632812 41.386719 20.164062 C 41.203125 20.953125 40.953125 21.726562 40.621094 22.460938 C 39.941406 23.957031 38.878906 25.089844 37.347656 25.707031 C 36.800781 25.929688 36.230469 26.089844 35.648438 26.203125 C 36.429688 25.835938 37.15625 25.363281 37.808594 24.761719 C 40.175781 22.578125 41.632812 19.148438 41.695312 15.949219 C 41.699219 15.792969 41.695312 15.636719 41.6875 15.476562 Z M 37.996094 9.652344 C 38.078125 9.722656 38.167969 9.800781 38.257812 9.878906 C 38.441406 9.988281 38.621094 10.101562 38.792969 10.222656 C 41.851562 12.347656 41.964844 16.433594 40.867188 19.660156 C 40.0625 22.019531 38.5625 24.34375 36.410156 25.679688 C 36.054688 25.902344 35.679688 26.097656 35.292969 26.269531 C 34.347656 26.421875 33.378906 26.457031 32.433594 26.410156 C 30.074219 26.296875 27.277344 25.613281 25.777344 23.636719 C 25.765625 23.617188 25.734375 23.632812 25.746094 23.652344 C 25.902344 23.886719 26.082031 24.097656 26.273438 24.292969 C 25.976562 24.050781 25.6875 23.792969 25.421875 23.507812 C 24.835938 22.824219 24.351562 22.074219 23.960938 21.277344 C 23.632812 20.511719 23.425781 19.695312 23.335938 18.867188 C 23.324219 18.765625 23.316406 18.660156 23.308594 18.558594 C 23.429688 19.0625 23.582031 19.554688 23.78125 20.027344 C 23.78125 20.03125 23.789062 20.03125 23.789062 20.023438 C 23.585938 19.519531 23.421875 18.980469 23.296875 18.425781 C 23.203125 17.210938 23.257812 15.960938 23.410156 14.757812 C 23.429688 14.726562 23.449219 14.691406 23.472656 14.660156 C 23.484375 14.636719 23.453125 14.617188 23.4375 14.640625 C 23.433594 14.648438 23.429688 14.65625 23.421875 14.660156 C 23.4375 14.566406 23.449219 14.46875 23.460938 14.371094 C 23.574219 13.609375 23.746094 12.824219 24.023438 12.085938 C 24.046875 12.054688 24.070312 12.027344 24.09375 12 C 24.34375 11.6875 24.621094 11.398438 24.910156 11.121094 C 24.753906 11.308594 24.605469 11.5 24.460938 11.699219 C 24.082031 12.222656 23.710938 12.878906 23.78125 13.554688 C 23.78125 13.558594 23.789062 13.558594 23.789062 13.554688 C 23.734375 12.914062 24.132812 12.308594 24.484375 11.8125 C 24.859375 11.273438 25.316406 10.785156 25.792969 10.328125 C 26.34375 9.855469 26.921875 9.410156 27.515625 8.988281 C 27.710938 8.957031 27.90625 8.917969 28.101562 8.878906 C 28.179688 8.835938 28.261719 8.789062 28.34375 8.746094 C 28.359375 8.734375 28.375 8.71875 28.394531 8.707031 C 28.15625 8.769531 27.914062 8.828125 27.675781 8.878906 C 28.171875 8.53125 28.675781 8.199219 29.191406 7.886719 C 29.324219 7.808594 29.457031 7.730469 29.59375 7.652344 C 29.671875 7.621094 29.746094 7.59375 29.828125 7.566406 C 30.371094 7.390625 30.917969 7.292969 31.46875 7.261719 C 32.125 7.265625 32.78125 7.359375 33.40625 7.480469 C 33.820312 7.5625 34.226562 7.664062 34.632812 7.78125 C 35.082031 8.015625 35.527344 8.257812 35.988281 8.457031 C 36.226562 8.5 36.472656 8.597656 36.707031 8.722656 C 36.890625 8.777344 37.082031 8.824219 37.277344 8.855469 C 37.738281 9.113281 38.195312 9.386719 38.636719 9.683594 C 39.25 10.15625 39.796875 10.707031 40.25 11.34375 C 39.554688 10.476562 38.628906 9.832031 37.628906 9.34375 C 37.765625 9.453125 37.890625 9.558594 37.996094 9.652344 Z M 34.46875 7.304688 C 36.25 7.746094 37.9375 8.621094 39.359375 9.769531 C 39.867188 10.175781 40.335938 10.625 40.746094 11.117188 C 40.21875 10.613281 39.617188 10.167969 38.996094 9.746094 C 38.589844 9.414062 38.148438 9.117188 37.691406 8.855469 C 37.699219 8.820312 37.675781 8.773438 37.628906 8.769531 C 37.589844 8.765625 37.550781 8.757812 37.507812 8.75 C 37.316406 8.648438 37.125 8.546875 36.929688 8.453125 C 36.671875 8.332031 36.40625 8.21875 36.136719 8.109375 C 35.492188 7.820312 34.828125 7.578125 34.152344 7.402344 C 33.921875 7.296875 33.691406 7.195312 33.457031 7.105469 C 33.796875 7.15625 34.136719 7.226562 34.46875 7.304688 Z M 42.335938 13.496094 C 42.226562 13.179688 42.09375 12.886719 41.9375 12.609375 C 41.828125 12.375 41.703125 12.144531 41.566406 11.921875 C 40.699219 10.53125 39.375 9.433594 37.984375 8.59375 C 36.714844 7.824219 35.160156 7.171875 33.585938 6.925781 C 31.460938 6.171875 29.257812 6.914062 27.429688 8.195312 C 27.335938 8.234375 27.246094 8.277344 27.15625 8.324219 C 27.464844 8.09375 27.773438 7.867188 28.074219 7.632812 C 28.078125 7.628906 28.070312 7.621094 28.066406 7.625 C 27.730469 7.878906 27.386719 8.128906 27.042969 8.382812 C 26.351562 8.746094 25.730469 9.253906 25.1875 9.816406 C 25.113281 9.890625 25.046875 9.972656 24.976562 10.050781 C 24.4375 10.558594 23.949219 11.121094 23.554688 11.773438 C 23.078125 12.554688 22.746094 13.425781 22.511719 14.316406 C 22.773438 13.382812 23.15625 12.492188 23.640625 11.695312 C 23.96875 11.152344 24.367188 10.675781 24.804688 10.238281 C 23.867188 11.335938 23.15625 12.652344 22.734375 14.027344 C 22.285156 15.484375 22.320312 16.980469 22.648438 18.445312 C 22.667969 18.820312 22.714844 19.195312 22.777344 19.566406 C 22.820312 21.558594 23.992188 23.316406 25.464844 24.660156 C 25.464844 24.664062 25.46875 24.667969 25.472656 24.671875 C 25.484375 24.691406 25.5 24.703125 25.515625 24.707031 C 25.980469 25.128906 26.476562 25.507812 26.976562 25.839844 C 27.949219 26.488281 29.03125 27 30.160156 27.324219 C 29.410156 27.296875 28.664062 27.175781 27.960938 26.929688 C 27.953125 26.925781 27.949219 26.941406 27.957031 26.945312 C 28.695312 27.21875 29.476562 27.339844 30.269531 27.355469 C 30.507812 27.417969 30.746094 27.480469 30.988281 27.527344 C 31.976562 27.722656 33.15625 27.789062 34.15625 27.460938 C 34.585938 27.4375 35.011719 27.386719 35.433594 27.3125 C 35.796875 27.285156 36.15625 27.234375 36.519531 27.140625 C 40.042969 26.25 42.078125 22.242188 42.632812 18.9375 C 42.929688 17.144531 42.925781 15.230469 42.335938 13.496094 "/></g><path style=" stroke:none;fill-rule:nonzero;fill:rgb(0%,0%,0%);fill-opacity:1;" d="M 36.242188 20.820312 C 35.640625 20.230469 34.933594 19.871094 34.152344 19.546875 C 34.117188 19.535156 34.09375 19.589844 34.128906 19.601562 C 34.574219 19.792969 34.996094 20.019531 35.410156 20.277344 C 35.507812 20.335938 35.59375 20.402344 35.679688 20.46875 C 35.332031 20.265625 34.976562 20.078125 34.644531 19.902344 C 34.324219 19.730469 33.996094 19.570312 33.664062 19.425781 C 33.734375 19.441406 33.804688 19.445312 33.871094 19.4375 C 33.902344 19.429688 33.898438 19.386719 33.878906 19.371094 C 33.726562 19.257812 32.484375 18.636719 32.171875 18.683594 C 32.164062 18.660156 32.160156 18.636719 32.152344 18.617188 C 32.15625 18.613281 32.160156 18.613281 32.164062 18.609375 C 32.296875 18.496094 32.207031 18.136719 32.1875 18.003906 C 32.121094 17.519531 32.050781 17.039062 32 16.554688 C 31.851562 15.144531 31.847656 13.714844 31.796875 12.292969 C 32.070312 12.847656 32.445312 13.449219 32.507812 13.5625 C 33.039062 14.519531 33.632812 15.453125 34.105469 16.4375 C 34.605469 17.472656 35.230469 18.460938 35.800781 19.460938 C 36.113281 20.003906 36.425781 20.550781 36.726562 21.101562 C 36.75 21.140625 36.769531 21.179688 36.789062 21.222656 C 36.617188 21.082031 36.433594 20.949219 36.242188 20.820312 Z M 36.566406 21.457031 C 36.347656 21.257812 36.089844 21.09375 35.84375 20.933594 C 35.667969 20.816406 35.496094 20.699219 35.320312 20.582031 C 35.832031 20.871094 36.34375 21.191406 36.777344 21.574219 C 36.710938 21.527344 36.640625 21.484375 36.566406 21.457031 Z M 32.988281 19.164062 C 32.820312 19.109375 32.503906 18.988281 32.238281 18.96875 C 32.234375 18.949219 32.226562 18.929688 32.222656 18.90625 C 32.222656 18.898438 32.222656 18.890625 32.21875 18.882812 C 32.210938 18.847656 32.199219 18.808594 32.191406 18.773438 C 32.25 18.792969 32.3125 18.828125 32.359375 18.84375 C 32.566406 18.925781 32.773438 19.023438 32.976562 19.117188 C 33.054688 19.15625 33.148438 19.207031 33.25 19.257812 C 33.164062 19.226562 33.074219 19.191406 32.988281 19.164062 Z M 31.96875 18.980469 C 31.960938 18.992188 31.953125 19.003906 31.945312 19.011719 C 31.933594 19.019531 31.921875 19.023438 31.914062 19.027344 C 31.90625 19.035156 31.902344 19.042969 31.898438 19.050781 C 31.695312 19.234375 31.5 19.429688 31.277344 19.585938 C 31.300781 19.558594 31.324219 19.53125 31.34375 19.503906 C 31.351562 19.496094 31.359375 19.492188 31.363281 19.484375 C 31.578125 19.308594 31.785156 19.128906 31.984375 18.9375 C 32.050781 18.875 31.96875 18.78125 31.890625 18.816406 C 31.351562 19.070312 30.898438 19.464844 30.523438 19.921875 C 30.175781 20.171875 29.824219 20.410156 29.472656 20.660156 C 29.421875 20.695312 29.46875 20.78125 29.523438 20.746094 C 29.632812 20.679688 29.742188 20.613281 29.847656 20.542969 C 29.785156 20.597656 29.722656 20.65625 29.664062 20.722656 C 29.402344 20.929688 29.136719 21.148438 28.894531 21.386719 C 28.71875 21.523438 28.546875 21.660156 28.375 21.800781 C 28.496094 21.414062 28.617188 21.03125 28.746094 20.648438 C 29.097656 19.582031 29.476562 18.527344 29.855469 17.472656 C 30.449219 15.808594 31.058594 14.140625 31.546875 12.4375 C 31.53125 13.761719 31.625 15.101562 31.722656 16.414062 C 31.75 16.828125 31.8125 17.238281 31.871094 17.648438 C 31.890625 17.8125 31.914062 17.976562 31.9375 18.136719 C 31.902344 18.136719 31.863281 18.164062 31.878906 18.203125 C 31.917969 18.308594 31.910156 18.425781 31.914062 18.535156 C 31.914062 18.554688 31.941406 18.554688 31.945312 18.535156 C 31.945312 18.507812 31.945312 18.480469 31.945312 18.449219 C 31.980469 18.582031 32.019531 18.71875 32.046875 18.855469 C 32.046875 18.859375 32.046875 18.863281 32.046875 18.867188 C 32.015625 18.910156 31.988281 18.957031 31.96875 18.980469 Z M 29.453125 21.355469 C 29.621094 21.175781 29.792969 21.003906 29.964844 20.828125 C 29.96875 20.835938 29.972656 20.839844 29.976562 20.84375 C 29.804688 21.019531 29.628906 21.1875 29.453125 21.355469 Z M 28.929688 21.824219 C 28.847656 21.894531 28.757812 21.96875 28.667969 22.042969 C 28.691406 22.023438 28.714844 22 28.738281 21.976562 C 28.972656 21.738281 29.210938 21.511719 29.457031 21.292969 C 29.289062 21.472656 29.113281 21.652344 28.929688 21.824219 Z M 28.191406 22.410156 C 28.210938 22.347656 28.222656 22.285156 28.238281 22.238281 C 28.25 22.199219 28.265625 22.15625 28.277344 22.117188 C 28.320312 22.082031 28.367188 22.046875 28.410156 22.015625 C 28.421875 22.046875 28.464844 22.066406 28.492188 22.035156 C 28.582031 21.933594 28.671875 21.839844 28.765625 21.746094 C 28.867188 21.667969 28.96875 21.589844 29.066406 21.511719 C 29 21.574219 28.929688 21.636719 28.863281 21.703125 C 28.753906 21.8125 28.648438 21.929688 28.539062 22.042969 C 28.441406 22.148438 28.320312 22.320312 28.191406 22.410156 Z M 30.132812 15.808594 C 30.4375 14.867188 30.660156 13.910156 30.941406 12.964844 C 31.019531 12.714844 31.101562 12.464844 31.179688 12.214844 C 31.214844 12.105469 31.257812 11.929688 31.316406 11.761719 C 31.320312 11.777344 31.335938 11.789062 31.351562 11.789062 C 31.339844 11.847656 31.328125 11.90625 31.316406 11.957031 C 31.183594 12.484375 30.976562 13.027344 30.960938 13.578125 C 30.960938 13.582031 30.960938 13.582031 30.960938 13.585938 C 30.585938 14.703125 30.195312 15.820312 29.792969 16.929688 C 29.625 17.398438 29.453125 17.867188 29.289062 18.332031 C 29.570312 17.492188 29.863281 16.652344 30.132812 15.808594 Z M 31.453125 11.777344 C 31.453125 11.773438 31.457031 11.773438 31.457031 11.773438 C 31.484375 11.710938 31.503906 11.644531 31.519531 11.574219 C 31.527344 11.628906 31.542969 11.6875 31.566406 11.753906 C 31.457031 12.09375 31.34375 12.4375 31.230469 12.777344 C 31.296875 12.441406 31.359375 12.101562 31.453125 11.777344 Z M 32.042969 11.90625 C 32.109375 12.011719 32.167969 12.121094 32.214844 12.234375 C 32.15625 12.144531 32.09375 12.058594 32.03125 11.96875 C 32.042969 11.972656 32.058594 11.960938 32.054688 11.949219 C 32.050781 11.933594 32.046875 11.917969 32.042969 11.90625 Z M 37.40625 21.816406 C 37.378906 21.78125 37.34375 21.75 37.3125 21.714844 C 37.238281 21.253906 36.527344 20.167969 36.441406 20.015625 C 35.808594 18.898438 35.15625 17.796875 34.539062 16.671875 C 34.082031 15.832031 33.621094 14.996094 33.144531 14.164062 C 32.988281 13.890625 32.835938 13.613281 32.683594 13.339844 C 32.667969 13.300781 32.652344 13.261719 32.640625 13.222656 C 32.5625 12.972656 32.488281 12.714844 32.367188 12.480469 C 32.363281 12.46875 32.355469 12.457031 32.347656 12.445312 C 32.3125 12.355469 32.273438 12.269531 32.234375 12.179688 C 32.171875 12.050781 32.089844 11.921875 32.011719 11.792969 C 32.027344 11.78125 32.042969 11.765625 32.035156 11.746094 C 31.984375 11.613281 31.90625 11.488281 31.851562 11.351562 C 31.847656 11.347656 31.847656 11.339844 31.84375 11.332031 C 31.863281 11.253906 31.882812 11.179688 31.902344 11.101562 C 31.921875 11.023438 31.808594 10.992188 31.78125 11.070312 C 31.777344 11.082031 31.773438 11.09375 31.769531 11.109375 C 31.765625 11.105469 31.757812 11.101562 31.753906 11.105469 C 31.734375 11.058594 31.714844 11.015625 31.695312 10.972656 C 31.667969 10.925781 31.589844 10.945312 31.59375 11 C 31.570312 10.984375 31.546875 10.96875 31.519531 10.957031 C 31.484375 10.9375 31.449219 10.960938 31.445312 11 C 31.429688 11.125 31.429688 11.25 31.417969 11.375 C 31.164062 11.605469 31.03125 12.265625 30.957031 12.5 C 30.660156 13.425781 30.449219 14.375 30.144531 15.300781 C 29.785156 16.398438 29.4375 17.496094 29.058594 18.585938 C 28.765625 19.441406 28.460938 20.304688 28.304688 21.199219 C 28.304688 21.207031 28.300781 21.210938 28.296875 21.21875 C 28.214844 21.480469 28.128906 21.746094 28.046875 22.011719 C 28.039062 22.042969 28.03125 22.074219 28.019531 22.101562 C 27.949219 22.167969 27.871094 22.230469 27.800781 22.296875 L 27.800781 22.300781 C 27.761719 22.34375 27.789062 22.410156 27.835938 22.421875 C 27.820312 22.472656 27.808594 22.519531 27.808594 22.574219 C 27.808594 22.621094 27.84375 22.675781 27.894531 22.6875 C 28.050781 22.71875 28.121094 22.609375 28.167969 22.484375 C 28.171875 22.484375 28.179688 22.488281 28.183594 22.484375 C 28.210938 22.480469 28.230469 22.476562 28.246094 22.46875 C 28.144531 22.59375 28.0625 22.726562 28.011719 22.867188 C 28.007812 22.875 28.023438 22.886719 28.03125 22.878906 C 28.503906 22.542969 28.925781 22.089844 29.359375 21.703125 C 29.832031 21.285156 30.375 20.855469 30.710938 20.316406 C 30.730469 20.285156 30.726562 20.246094 30.707031 20.21875 C 30.882812 20.078125 31.085938 19.925781 31.183594 19.730469 C 31.34375 19.636719 31.484375 19.523438 31.621094 19.402344 C 31.597656 19.429688 31.574219 19.453125 31.550781 19.476562 C 31.550781 19.476562 31.550781 19.480469 31.550781 19.480469 C 31.511719 19.515625 31.566406 19.585938 31.617188 19.542969 C 31.765625 19.421875 31.863281 19.25 31.996094 19.117188 C 32.015625 19.121094 32.035156 19.128906 32.054688 19.132812 C 31.441406 19.75 30.84375 20.40625 30.179688 20.972656 C 30.164062 20.988281 30.1875 21.011719 30.207031 20.996094 C 30.875 20.453125 31.425781 19.765625 32.089844 19.222656 C 32.101562 19.34375 32.117188 19.46875 32.152344 19.585938 C 32.164062 19.625 32.21875 19.625 32.226562 19.585938 C 32.261719 19.464844 32.269531 19.320312 32.257812 19.171875 C 32.265625 19.171875 32.273438 19.175781 32.28125 19.175781 C 32.335938 19.191406 32.390625 19.207031 32.445312 19.226562 C 33.203125 19.578125 33.96875 19.792969 34.644531 20.335938 C 35.277344 20.851562 36 21.285156 36.664062 21.761719 C 36.707031 21.789062 36.742188 21.769531 36.761719 21.738281 C 36.785156 21.753906 36.808594 21.773438 36.832031 21.792969 C 36.941406 21.875 37.082031 22.007812 37.226562 22.023438 C 37.34375 22.128906 37.515625 21.949219 37.40625 21.816406 "/></g></svg>