<?xml version="1.0" encoding="UTF-8"?><svg xmlns="http://www.w3.org/2000/svg" xmlns:xlink="http://www.w3.org/1999/xlink" width="375pt" zoomAndPan="magnify" viewBox="0 0 375 131.249995" height="131.249995pt" preserveAspectRatio="xMidYMid meet" version="1.2"><defs><g/><clipPath xml:id="clip1" id="clip1"><path d="M 235 50 L 276 50 L 276 67.5 L 235 67.5 Z M 235 50 "/></clipPath><clipPath xml:id="clip2" id="clip2"><path d="M 185.8125 0 L 364.15625 0 L 364.15625 67.5 L 185.8125 67.5 Z M 185.8125 0 "/></clipPath></defs><g xml:id="surface1" id="surface1"><g style="fill:rgb(1.959229%,11.369324%,25.099182%);fill-opacity:1;"><g transform="translate(10.368474, 118.411651)"><path style="stroke:none;" d="M 28.015625 0 L 26.09375 -7.28125 L 13.484375 -7.28125 L 11.515625 0 L 0 0 L 12.671875 -38.96875 L 26.65625 -38.96875 L 39.484375 0 Z M 23.921875 -15.875 L 22.25 -22.25 C 21.863281 -23.664062 21.390625 -25.492188 20.828125 -27.734375 C 20.273438 -29.984375 19.910156 -31.597656 19.734375 -32.578125 C 19.566406 -31.671875 19.25 -30.179688 18.78125 -28.109375 C 18.3125 -26.046875 17.273438 -21.96875 15.671875 -15.875 Z M 23.921875 -15.875 "/></g></g><g style="fill:rgb(1.959229%,11.369324%,25.099182%);fill-opacity:1;"><g transform="translate(49.844938, 118.411651)"><path style="stroke:none;" d="M 37.140625 -20.234375 C 37.140625 -13.753906 35.351562 -8.757812 31.78125 -5.25 C 28.21875 -1.75 23.207031 0 16.75 0 L 4.1875 0 L 4.1875 -38.8125 L 17.625 -38.8125 C 23.851562 -38.8125 28.660156 -37.21875 32.046875 -34.03125 C 35.441406 -30.851562 37.140625 -26.253906 37.140625 -20.234375 Z M 26.265625 -19.859375 C 26.265625 -23.421875 25.554688 -26.054688 24.140625 -27.765625 C 22.734375 -29.484375 20.597656 -30.34375 17.734375 -30.34375 L 14.6875 -30.34375 L 14.6875 -8.609375 L 17.015625 -8.609375 C 20.203125 -8.609375 22.539062 -9.53125 24.03125 -11.375 C 25.519531 -13.226562 26.265625 -16.054688 26.265625 -19.859375 Z M 26.265625 -19.859375 "/></g></g><g style="fill:rgb(1.959229%,11.369324%,25.099182%);fill-opacity:1;"><g transform="translate(89.746166, 118.411651)"><path style="stroke:none;" d="M 26 -38.8125 L 37.734375 -38.8125 L 25.015625 0 L 12.671875 0 L 0 -38.8125 L 11.78125 -38.8125 L 17.078125 -19.140625 C 18.171875 -14.765625 18.769531 -11.722656 18.875 -10.015625 C 19 -11.253906 19.242188 -12.800781 19.609375 -14.65625 C 19.984375 -16.507812 20.316406 -17.96875 20.609375 -19.03125 Z M 26 -38.8125 "/></g></g><g style="fill:rgb(1.959229%,11.369324%,25.099182%);fill-opacity:1;"><g transform="translate(127.47048, 118.411651)"><path style="stroke:none;" d="M 27.234375 0 L 4.1875 0 L 4.1875 -38.8125 L 27.234375 -38.8125 L 27.234375 -30.40625 L 14.6875 -30.40625 L 14.6875 -24.296875 L 26.3125 -24.296875 L 26.3125 -15.875 L 14.6875 -15.875 L 14.6875 -8.546875 L 27.234375 -8.546875 Z M 27.234375 0 "/></g></g><g style="fill:rgb(1.959229%,11.369324%,25.099182%);fill-opacity:1;"><g transform="translate(157.310121, 118.411651)"><path style="stroke:none;" d="M 41.15625 0 L 27.40625 0 L 13.21875 -27.34375 L 12.984375 -27.34375 C 13.316406 -23.039062 13.484375 -19.757812 13.484375 -17.5 L 13.484375 0 L 4.1875 0 L 4.1875 -38.8125 L 17.890625 -38.8125 L 32.015625 -11.84375 L 32.171875 -11.84375 C 31.929688 -15.75 31.8125 -18.890625 31.8125 -21.265625 L 31.8125 -38.8125 L 41.15625 -38.8125 Z M 41.15625 0 "/></g></g><g style="fill:rgb(1.959229%,11.369324%,25.099182%);fill-opacity:1;"><g transform="translate(202.653632, 118.411651)"><path style="stroke:none;" d="M 21.3125 0 L 10.828125 0 L 10.828125 -30.234375 L 1.359375 -30.234375 L 1.359375 -38.8125 L 30.765625 -38.8125 L 30.765625 -30.234375 L 21.3125 -30.234375 Z M 21.3125 0 "/></g></g><g style="fill:rgb(1.959229%,11.369324%,25.099182%);fill-opacity:1;"><g transform="translate(234.776376, 118.411651)"><path style="stroke:none;" d="M 37.203125 -38.8125 L 37.203125 -15.453125 C 37.203125 -10.367188 35.757812 -6.429688 32.875 -3.640625 C 30 -0.859375 25.851562 0.53125 20.4375 0.53125 C 15.144531 0.53125 11.078125 -0.820312 8.234375 -3.53125 C 5.398438 -6.238281 3.984375 -10.132812 3.984375 -15.21875 L 3.984375 -38.8125 L 14.515625 -38.8125 L 14.515625 -16.03125 C 14.515625 -13.289062 15.03125 -11.300781 16.0625 -10.0625 C 17.09375 -8.820312 18.609375 -8.203125 20.609375 -8.203125 C 22.742188 -8.203125 24.289062 -8.816406 25.25 -10.046875 C 26.21875 -11.273438 26.703125 -13.289062 26.703125 -16.09375 L 26.703125 -38.8125 Z M 37.203125 -38.8125 "/></g></g><g style="fill:rgb(1.959229%,11.369324%,25.099182%);fill-opacity:1;"><g transform="translate(275.925347, 118.411651)"><path style="stroke:none;" d="M 14.6875 -14.125 L 14.6875 0 L 4.1875 0 L 4.1875 -38.8125 L 16.90625 -38.8125 C 27.457031 -38.8125 32.734375 -34.988281 32.734375 -27.34375 C 32.734375 -22.851562 30.539062 -19.375 26.15625 -16.90625 L 37.46875 0 L 25.5625 0 L 17.34375 -14.125 Z M 14.6875 -22.015625 L 16.640625 -22.015625 C 20.304688 -22.015625 22.140625 -23.632812 22.140625 -26.875 C 22.140625 -29.539062 20.34375 -30.875 16.75 -30.875 L 14.6875 -30.875 Z M 14.6875 -22.015625 "/></g></g><g style="fill:rgb(1.959229%,11.369324%,25.099182%);fill-opacity:1;"><g transform="translate(312.720475, 118.411651)"><path style="stroke:none;" d="M 27.234375 0 L 4.1875 0 L 4.1875 -38.8125 L 27.234375 -38.8125 L 27.234375 -30.40625 L 14.6875 -30.40625 L 14.6875 -24.296875 L 26.3125 -24.296875 L 26.3125 -15.875 L 14.6875 -15.875 L 14.6875 -8.546875 L 27.234375 -8.546875 Z M 27.234375 0 "/></g></g><g style="fill:rgb(1.959229%,11.369324%,25.099182%);fill-opacity:1;"><g transform="translate(342.560116, 118.411651)"><path style="stroke:none;" d="M 29.578125 -11.78125 C 29.578125 -9.375 28.960938 -7.238281 27.734375 -5.375 C 26.515625 -3.507812 24.753906 -2.054688 22.453125 -1.015625 C 20.160156 0.015625 17.460938 0.53125 14.359375 0.53125 C 11.773438 0.53125 9.609375 0.347656 7.859375 -0.015625 C 6.109375 -0.378906 4.285156 -1.007812 2.390625 -1.90625 L 2.390625 -11.25 C 4.390625 -10.226562 6.46875 -9.425781 8.625 -8.84375 C 10.789062 -8.269531 12.773438 -7.984375 14.578125 -7.984375 C 16.128906 -7.984375 17.269531 -8.253906 18 -8.796875 C 18.726562 -9.335938 19.09375 -10.035156 19.09375 -10.890625 C 19.09375 -11.421875 18.945312 -11.882812 18.65625 -12.28125 C 18.363281 -12.675781 17.894531 -13.078125 17.25 -13.484375 C 16.601562 -13.890625 14.878906 -14.722656 12.078125 -15.984375 C 9.546875 -17.128906 7.644531 -18.242188 6.375 -19.328125 C 5.113281 -20.410156 4.175781 -21.648438 3.5625 -23.046875 C 2.957031 -24.441406 2.65625 -26.097656 2.65625 -28.015625 C 2.65625 -31.585938 3.953125 -34.375 6.546875 -36.375 C 9.148438 -38.375 12.726562 -39.375 17.28125 -39.375 C 21.300781 -39.375 25.398438 -38.445312 29.578125 -36.59375 L 26.359375 -28.484375 C 22.734375 -30.148438 19.601562 -30.984375 16.96875 -30.984375 C 15.601562 -30.984375 14.609375 -30.742188 13.984375 -30.265625 C 13.367188 -29.785156 13.0625 -29.191406 13.0625 -28.484375 C 13.0625 -27.722656 13.453125 -27.039062 14.234375 -26.4375 C 15.023438 -25.84375 17.164062 -24.75 20.65625 -23.15625 C 24 -21.644531 26.320312 -20.023438 27.625 -18.296875 C 28.925781 -16.578125 29.578125 -14.40625 29.578125 -11.78125 Z M 29.578125 -11.78125 "/></g></g><g clip-rule="nonzero" clip-path="url(#clip1)"><path style=" stroke:none;fill-rule:nonzero;fill:rgb(1.959229%,11.369324%,25.099182%);fill-opacity:1;" d="M 235.269531 68.582031 L 243.96875 68.582031 L 255.566406 58.808594 L 267.164062 68.582031 L 275.867188 68.582031 L 255.566406 50.058594 Z M 235.269531 68.582031 "/></g><g clip-rule="nonzero" clip-path="url(#clip2)"><path style=" stroke:none;fill-rule:nonzero;fill:rgb(1.959229%,11.369324%,25.099182%);fill-opacity:1;" d="M 301.160156 14.039062 L 355.980469 68.582031 L 364.070312 68.582031 L 301.160156 5.179688 L 282.015625 24.632812 L 257.035156 -0.476562 L 185.886719 68.582031 L 194.320312 68.582031 L 257.035156 8 L 277.796875 28.871094 L 267.59375 39.125 L 256.207031 27.675781 L 213.949219 68.582031 L 222.300781 68.582031 L 256.207031 35.878906 L 279.601562 59.398438 L 279.617188 59.414062 L 280.417969 60.21875 L 281.546875 61.347656 L 284.925781 57.953125 L 289.378906 53.480469 L 306.59375 68.582031 L 314.941406 68.582031 L 314.753906 68.582031 L 292.984375 48.898438 L 300.683594 41.164062 L 330.25 68.582031 L 338.417969 68.582031 L 300.683594 32.960938 L 281.070312 52.671875 L 272.003906 43.554688 Z M 301.160156 14.039062 "/></g><g style="fill:rgb(1.959229%,11.369324%,25.099182%);fill-opacity:1;"><g transform="translate(7.314029, 66.804672)"><path style="stroke:none;" d="M 27.0625 -38.765625 C 23.914062 -38.765625 21.460938 -37.476562 19.703125 -34.90625 C 17.941406 -32.332031 17.0625 -28.78125 17.0625 -24.25 C 17.0625 -14.84375 20.640625 -10.140625 27.796875 -10.140625 C 29.960938 -10.140625 32.054688 -10.4375 34.078125 -11.03125 C 36.109375 -11.632812 38.148438 -12.363281 40.203125 -13.21875 L 40.203125 -2.046875 C 36.117188 -0.234375 31.503906 0.671875 26.359375 0.671875 C 18.972656 0.671875 13.3125 -1.46875 9.375 -5.75 C 5.445312 -10.03125 3.484375 -16.21875 3.484375 -24.3125 C 3.484375 -29.375 4.4375 -33.820312 6.34375 -37.65625 C 8.25 -41.5 10.988281 -44.453125 14.5625 -46.515625 C 18.144531 -48.578125 22.351562 -49.609375 27.1875 -49.609375 C 32.476562 -49.609375 37.53125 -48.457031 42.34375 -46.15625 L 38.296875 -35.75 C 36.492188 -36.601562 34.6875 -37.316406 32.875 -37.890625 C 31.070312 -38.472656 29.132812 -38.765625 27.0625 -38.765625 Z M 27.0625 -38.765625 "/></g></g><g style="fill:rgb(1.959229%,11.369324%,25.099182%);fill-opacity:1;"><g transform="translate(57.918638, 66.804672)"><path style="stroke:none;" d="M 51.046875 -24.515625 C 51.046875 -16.285156 49.023438 -10.03125 44.984375 -5.75 C 40.953125 -1.46875 35.046875 0.671875 27.265625 0.671875 C 19.585938 0.671875 13.703125 -1.476562 9.609375 -5.78125 C 5.523438 -10.082031 3.484375 -16.347656 3.484375 -24.578125 C 3.484375 -32.722656 5.515625 -38.941406 9.578125 -43.234375 C 13.648438 -47.523438 19.566406 -49.671875 27.328125 -49.671875 C 35.109375 -49.671875 41.003906 -47.539062 45.015625 -43.28125 C 49.035156 -39.019531 51.046875 -32.765625 51.046875 -24.515625 Z M 17.390625 -24.515625 C 17.390625 -15.054688 20.679688 -10.328125 27.265625 -10.328125 C 30.609375 -10.328125 33.085938 -11.472656 34.703125 -13.765625 C 36.316406 -16.066406 37.125 -19.648438 37.125 -24.515625 C 37.125 -29.398438 36.300781 -33.003906 34.65625 -35.328125 C 33.019531 -37.660156 30.578125 -38.828125 27.328125 -38.828125 C 20.703125 -38.828125 17.390625 -34.054688 17.390625 -24.515625 Z M 17.390625 -24.515625 "/></g></g><g style="fill:rgb(1.959229%,11.369324%,25.099182%);fill-opacity:1;"><g transform="translate(118.654615, 66.804672)"><path style="stroke:none;" d="M 5.28125 0 L 5.28125 -48.90625 L 18.5 -48.90625 L 18.5 -10.671875 L 37.328125 -10.671875 L 37.328125 0 Z M 5.28125 0 "/></g></g></g></svg>